<?xml version="1.0" standalone="no"?>
<!DOCTYPE svg PUBLIC "-//W3C//DTD SVG 1.1//EN" "http://www.w3.org/Graphics/SVG/1.1/DTD/svg11.dtd" >
<svg xmlns="http://www.w3.org/2000/svg" xmlns:xlink="http://www.w3.org/1999/xlink" version="1.1">
<metadata>
Created by FontForge 20170812 at Fri Nov  3 00:38:47 2017
 By www-data
Copyright (c) 2017 Datto, Inc. All rights reserved.
</metadata>
<defs>
<font id="D-DINExp-Bold" horiz-adv-x="500" >
  <font-face 
    font-family="D-DIN Exp"
    font-weight="700"
    font-stretch="expanded"
    units-per-em="1000"
    panose-1="2 11 8 4 2 2 2 3 2 4"
    ascent="831"
    descent="-169"
    x-height="520"
    cap-height="690"
    bbox="-181 -168 1318 898"
    underline-thickness="50"
    underline-position="-100"
    unicode-range="U+000D-FB02"
  />
<missing-glyph horiz-adv-x="600" 
d="M101 690h397v-690h-397v690zM464 34v622h-329v-622h329z" />
    <glyph glyph-name=".notdef" horiz-adv-x="600" 
d="M101 690h397v-690h-397v690zM464 34v622h-329v-622h329z" />
    <glyph glyph-name="NULL" horiz-adv-x="600" 
 />
    <glyph glyph-name="NULL" horiz-adv-x="600" 
 />
    <glyph glyph-name="nonmarkingreturn" unicode="&#xd;" horiz-adv-x="229" 
 />
    <glyph glyph-name="space" unicode=" " horiz-adv-x="229" 
 />
    <glyph glyph-name="exclam" unicode="!" horiz-adv-x="249" 
d="M54 690h141l-24 -460h-93zM59 130h131v-130h-131v130z" />
    <glyph glyph-name="quotedbl" unicode="&#x22;" horiz-adv-x="396" 
d="M38 690h117v-298h-117v298zM242 690h116v-298h-116v298z" />
    <glyph glyph-name="numbersign" unicode="#" horiz-adv-x="602" 
d="M468 406l-14 -110h102v-92h-114l-27 -204h-104l27 204h-112l-27 -204h-103l27 204h-105v92h117l15 110h-104v92h116l25 192h103l-25 -192h112l25 192h103l-25 -192h104v-92h-116zM365 406h-112l-15 -110h112z" />
    <glyph glyph-name="dollar" unicode="$" horiz-adv-x="535" 
d="M452 91.5c-34 -33 -81.334 -52.832 -142.001 -59.499v-92h-89v91c-59.333 6 -105.666 25.833 -138.999 59.5s-51.333 79.167 -54 136.5h115c4 -32.667 15.833 -56 35.5 -70s49.834 -21 90.501 -21c36.667 0 64.5 6.66699 83.5 20s28.5 33 28.5 59
c0 23.333 -6.33301 41.333 -19 54s-33.334 20.667 -62 24l-75 10c-120.667 16 -181 74 -181 174c0 51.333 15.5 93.166 46.5 125.499s74.5 52.166 130.5 59.499v78h89v-77c55.333 -6 98.666 -24.667 129.999 -56s49 -74 53 -128h-117c-2.66699 28 -13 48.667 -31 62
s-44.333 20 -79 20c-32.667 0 -57.667 -6.5 -75 -19.5s-26 -31.5 -26 -55.5c0 -21.333 7.16699 -38.166 21.5 -50.499s37.5 -20.833 69.5 -25.5l78 -11c112.667 -16 169 -74.333 169 -175c0 -55.333 -17 -99.5 -51 -132.5z" />
    <glyph glyph-name="percent" unicode="%" horiz-adv-x="983" 
d="M46 428v112.001c0 51.333 13 90.166 39 116.499s64 39.5 114 39.5c99.333 0 149 -52 149 -156v-112c0 -109.333 -50.333 -164 -151 -164s-151 54.667 -151 164zM663 695.001h102l-444 -695h-101zM235.5 371.001c6.33301 12 9.5 32.668 9.5 62.001v94
c0 29.333 -3.33301 50.166 -10 62.499s-19 18.5 -37 18.5c-18.667 0 -31.5 -6.16699 -38.5 -18.5c-7 -12.3359 -10.5 -33.1689 -10.5 -62.5v-94c0 -29.333 3.5 -50 10.5 -62s19.833 -18 38.5 -18s31.167 6 37.5 18zM635 158.002v112c0 51.334 13 90.167 39 116.5
s64 39.5 114 39.5c99.333 0 149 -52 149 -156v-112c0 -109.333 -50.333 -164 -151 -164s-151 54.667 -151 164zM824.5 101.002c6.33301 12 9.5 32.666 9.5 61.999v94c0 29.334 -3.33301 50.167 -10 62.5s-19 18.5 -37 18.5c-18.667 0 -31.5 -6.16699 -38.5 -18.5
s-10.5 -33.166 -10.5 -62.499v-94c0 -29.333 3.5 -50 10.5 -62s19.833 -18 38.5 -18s31.167 6 37.5 18z" />
    <glyph glyph-name="ampersand" unicode="&#x26;" horiz-adv-x="666" 
d="M562 114c9.33301 -4.66699 21.001 -7.00098 35.001 -7.00098h22v-107h-54c-24 0 -44.5 4.33301 -61.5 13s-35.5 25 -55.5 49l-3 3c-30 -28.667 -60 -49 -90 -61s-62.667 -18 -98 -18c-66 0 -117.667 18.167 -155 54.5s-56 83.5 -56 141.5
c0 40.667 10.5 76.834 31.5 108.501s54.833 62.167 101.5 91.5c-26.667 33.333 -45.334 61.333 -56.001 84s-16 46.667 -16 72c0 50 17.167 90.167 51.5 120.5s78.833 45.5 133.5 45.5c55.333 0 100.333 -15.333 135 -46s52 -70.667 52 -120
c0 -34.667 -10.333 -65.5 -31 -92.5s-55.334 -56.167 -104 -87.5l110 -128l90 101l77 -70l-99 -111l10 -11c10.667 -12 20.667 -20.333 30 -25zM241.501 590.499c-12.333 -11.667 -18.5 -27.499 -18.5 -47.499c0 -14.667 3.83301 -29.834 11.5 -45.501
s22.167 -36.167 43.5 -61.5c34 20.667 57 39 69 55s18 32.667 18 50c0 20 -6.5 36.167 -19.5 48.5s-30.5 18.5 -52.5 18.5s-39.167 -5.83301 -51.5 -17.5zM320.001 105c18 8 37.332 21.667 57.999 41l-131 155c-30.667 -20 -52.167 -38.667 -64.5 -56
c-12.333 -17.334 -18.5 -36.667 -18.5 -58c0 -29.333 8.83301 -52.333 26.5 -69s41.834 -25 72.501 -25c20 0 39 4 57 12z" />
    <glyph glyph-name="quotesingle" unicode="'" horiz-adv-x="193" 
d="M38 690h117v-298h-117v298z" />
    <glyph glyph-name="parenleft" unicode="(" horiz-adv-x="323" 
d="M81.5 109.5c-23.667 69.667 -35.5 142.834 -35.5 219.501c0 78 11.833 151.667 35.5 221s58.834 132.666 105.501 189.999h91c-36 -60 -63.167 -125 -81.5 -195s-27.5 -142.333 -27.5 -217s9.16699 -147 27.5 -217s45.166 -135 80.499 -195h-91
c-46 59.333 -80.833 123.833 -104.5 193.5z" />
    <glyph glyph-name="parenright" unicode=")" horiz-adv-x="323" 
d="M127 111c18.667 70 28 142.333 28 217s-9.16699 147 -27.5 217s-45.5 135 -81.5 195h91c46 -58 81 -121.667 105 -191s36 -142.666 36 -219.999c0 -76.667 -11.833 -149.834 -35.5 -219.501s-58.5 -134.167 -104.5 -193.5h-92c35.333 60 62.333 125 81 195z" />
    <glyph glyph-name="asterisk" unicode="*" horiz-adv-x="414" 
d="M173 491l-98 -50l-29 54l90 46l-90 46l29 54l98 -49v98h69v-99l98 50l28 -54l-90 -46l91 -46l-30 -54l-97 49v-101h-69v102z" />
    <glyph glyph-name="plus" unicode="+" horiz-adv-x="529" 
d="M208 219h-160v114h160v160h114v-160h159v-114h-159v-160h-114v160z" />
    <glyph glyph-name="comma" unicode="," horiz-adv-x="193" 
d="M38 137h117v-200l-117 -99v299z" />
    <glyph glyph-name="hyphen" unicode="-" horiz-adv-x="400" 
d="M46 403h309v-115h-309v115z" />
    <glyph glyph-name="period" unicode="." horiz-adv-x="215" 
d="M38 142h139v-142h-139v142z" />
    <glyph glyph-name="slash" unicode="/" horiz-adv-x="445" 
d="M295 695h105l-250 -705h-104z" />
    <glyph glyph-name="zero" unicode="0" horiz-adv-x="564" 
d="M55 242v214c0 80.667 19.667 141.667 59 183s97 62 173 62c77.333 0 135.333 -20.667 174 -62s58 -102.333 58 -183v-214c0 -83.333 -19.333 -146.333 -58 -189s-96.667 -64 -174 -64c-154.667 0 -232 84.333 -232 253zM365 138.5c15.333 23.667 23 61.834 23 114.501
v184c0 52.667 -7.83301 90.667 -23.5 114s-41.5 35 -77.5 35s-61.667 -11.667 -77 -35c-15.333 -23.334 -23 -61.334 -23 -114v-184c0 -52.667 7.66699 -90.834 23 -114.501s41 -35.5 77 -35.5c36.667 0 62.667 11.833 78 35.5z" />
    <glyph glyph-name="one" unicode="1" horiz-adv-x="379" 
d="M183 553l-147 -85v135l147 87h131v-690h-131v553z" />
    <glyph glyph-name="two" unicode="2" horiz-adv-x="544" 
d="M54 104l257.999 275.999c22 21.333 37.333 40.5 46 57.5s13 35.5 13 55.5v11c0 26.667 -8.83301 47.667 -26.5 63s-41.834 23 -72.5 23c-30 0 -53.667 -7.33301 -71 -22s-26 -35 -26 -61v-16h-125v24c0 56.668 20 101.835 60 135.501c40 33.667 94.667 50.5 164 50.5
c46.667 0 87.334 -8.16699 122.001 -24.5c34.667 -16.3359 61.167 -39.1689 79.5 -68.5c18.333 -29.333 27.5 -63 27.5 -101v-13c0 -35.333 -7 -67.333 -21 -96s-35.667 -57.667 -65 -87l-186 -196h273v-115h-450v104z" />
    <glyph glyph-name="three" unicode="3" horiz-adv-x="555" 
d="M109 37.5c-39.333 32.333 -59.001 78.833 -59.001 139.5v11h122v-8c0 -26 9 -45.833 27 -59.5s44 -20.5 78 -20.5c33.333 0 59 8.16699 77 24.5s27 39.166 27 68.499v15c0 31.333 -9.5 54.5 -28.5 69.5s-47.833 22.5 -86.5 22.5h-39v111h38c34 0 59.833 7.33301 77.5 22
s26.5 35.667 26.5 63v12c0 26 -8.33301 46.167 -25 60.5s-40.334 21.5 -71 21.5c-31.333 0 -55.333 -7 -72 -21s-25 -34 -25 -60v-9h-120v9c0 62 19 109.5 57 142.5s92.333 49.5 163 49.5c69.334 0 123.667 -16 163 -48s59 -76 59 -132v-13c0 -32 -8.16699 -60 -24.5 -84
s-40.166 -43 -71.499 -57c35.334 -12 62.167 -31.667 80.5 -59s27.5 -60.666 27.5 -99.999v-16c0 -62.667 -20.833 -112.167 -62.5 -148.5s-97.834 -54.5 -168.5 -54.5c-74 0 -130.667 16.167 -170 48.5z" />
    <glyph glyph-name="four" unicode="4" horiz-adv-x="577" 
d="M546 110h-63v-110h-131v110h-313v115l221 465h134l-222 -465h180v162h131v-162h63v-115z" />
    <glyph glyph-name="five" unicode="5" horiz-adv-x="547" 
d="M114 36c-39.333 31.333 -59.001 74.667 -59.001 130v8h125v-4c0 -20.667 8.5 -37.5 25.5 -50.5s39.833 -19.5 68.5 -19.5c32.667 0 57.334 9.33301 74.001 28s25 45 25 79v31c0 35.333 -8.5 62.333 -25.5 81s-41.5 28 -73.5 28c-21.333 0 -40 -4.5 -56 -13.5
s-28 -21.167 -36 -36.5h-115v393h414v-112h-301v-161c33.333 24.667 74 37 122 37c63.333 0 112.5 -18.5 147.5 -55.5s52.5 -88.833 52.5 -155.5v-38c0 -68 -20 -121 -60 -159s-96.333 -57 -169 -57c-66.667 0 -119.667 15.667 -159 47z" />
    <glyph glyph-name="six" unicode="6" horiz-adv-x="569" 
d="M113 44.5c-42 37 -63.001 88.499 -63.001 154.499v20c0 50.667 16.667 105.334 50 164.001l178 307h142l-164 -283c18.667 9.33301 43 14 73 14c60 0 108.333 -17.833 145 -53.5s55 -83.5 55 -143.5v-21c0 -66.667 -21.667 -119 -65 -157s-101.666 -57 -174.999 -57
c-75.333 0 -134 18.5 -176 55.5zM368.999 125.999c19.333 17.333 29 41.332 29 71.999v18c0 30.667 -9.66699 54.334 -29 71.001s-46 25 -80 25s-60.5 -8.33301 -79.5 -25s-28.5 -40 -28.5 -70v-19c0 -30.667 9.5 -54.667 28.5 -72s45.5 -26 79.5 -26s60.667 8.66699 80 26z
" />
    <glyph glyph-name="seven" unicode="7" horiz-adv-x="507" 
d="M480 690v-114l-243 -576h-133l245 576h-316v114h447z" />
    <glyph glyph-name="eight" unicode="8" horiz-adv-x="578" 
d="M120 44.5c-43.333 37 -65.001 87.167 -65.001 150.5v14c0 33.333 8.5 63.5 25.5 90.5s40.833 47.833 71.5 62.5c-25.333 12.667 -45.333 31 -60 55s-22 51.333 -22 82v11c0 37.333 9 70.5 27 99.5s44 51.5 78 67.5s74 24 120 24s86 -8 120 -24s60 -38.5 78 -67.5
s27 -62.167 27 -99.5v-11c0 -30 -7.5 -57.167 -22.5 -81.5s-35.167 -42.833 -60.5 -55.5c30.667 -15.333 54.334 -36.5 71.001 -63.5s25 -56.5 25 -88.5v-14c0 -64 -21.667 -114.5 -65 -151.5s-101.333 -55.5 -174 -55.5s-130.667 18.5 -174 55.5zM365.999 436.5
c16.667 15 24.999 35.501 24.999 61.501v11c0 25.333 -8.5 45.166 -25.5 59.499s-40.5 21.5 -70.5 21.5c-30.667 0 -54.5 -7.16699 -71.5 -21.5c-17 -14.334 -25.5 -34.167 -25.5 -59.5v-11c0 -26 8.33301 -46.5 25 -61.5s40.667 -22.5 72 -22.5
c30.667 0 54.334 7.5 71.001 22.5zM375.998 125.501c19.333 17 29.002 40.833 29.002 71.5v15c0 29.333 -9.66699 52.333 -29 69s-46.333 25 -81 25s-61.834 -8.33301 -81.501 -25s-29.5 -39.667 -29.5 -69v-15c0 -30.667 9.66699 -54.5 29 -71.5s46.666 -25.5 81.999 -25.5
c34.667 0 61.667 8.5 81 25.5z" />
    <glyph glyph-name="nine" unicode="9" horiz-adv-x="569" 
d="M322 283c-20.667 -9.33301 -44.667 -14 -72 -14c-60 0 -108.333 18 -145 54s-55 84 -55 144v21c0 66.667 21.333 118.834 64 156.5c42.667 37.667 101 56.5 175 56.5c75.334 0 134.167 -18.5 176.5 -55.5s63.5 -88.167 63.5 -153.5v-21c0 -51.333 -17 -106 -51 -164
l-178 -307h-141zM368.5 403.5c19 17 28.5 40.5 28.5 70.5v19c0 30.667 -9.5 54.5 -28.5 71.5s-45.5 25.5 -79.5 25.5s-60.5 -8.66699 -79.5 -26s-28.5 -41.333 -28.5 -72v-17c0 -30.667 9.5 -54.5 28.5 -71.5s45.5 -25.5 79.5 -25.5s60.5 8.5 79.5 25.5z" />
    <glyph glyph-name="colon" unicode=":" horiz-adv-x="215" 
d="M38 480h139v-142h-139v142zM38 142h139v-142h-139v142z" />
    <glyph glyph-name="semicolon" unicode=";" horiz-adv-x="215" 
d="M38 480h139v-142h-139v142zM58 137h117v-200l-117 -99v299z" />
    <glyph glyph-name="less" unicode="&#x3c;" horiz-adv-x="529" 
d="M48 223v103l432 169v-115l-278 -106l278 -105v-116z" />
    <glyph glyph-name="equal" unicode="=" horiz-adv-x="529" 
d="M49 437h431v-113h-431v113zM49 228h431v-113h-431v113z" />
    <glyph glyph-name="greater" unicode="&#x3e;" horiz-adv-x="529" 
d="M48 169l278 105l-278 106v115l432 -169v-103l-432 -170v116z" />
    <glyph glyph-name="question" unicode="?" 
d="M180 239c0 32 3.66797 57.334 11.001 76.001s22.666 38.667 45.999 60l51 53c18.667 17.333 31.667 32.333 39 45s11 26.667 11 42c0 23.333 -8 41.166 -24 53.499s-40 18.5 -72 18.5s-55.5 -6.5 -70.5 -19.5s-22.833 -32.833 -23.5 -59.5h-121c4 128 76.667 192 218 192
c69.333 0 123.5 -15.833 162.5 -47.5s58.5 -75.5 58.5 -131.5c0 -55.333 -21.667 -103.333 -65 -144l-57 -61c-15.333 -14.667 -25.833 -28.334 -31.5 -41c-5.66699 -12.667 -8.5 -29.667 -8.5 -51v-31h-124v46zM176.001 126.001h131v-126h-131v126z" />
    <glyph glyph-name="at" unicode="@" horiz-adv-x="874" 
d="M234 -88c-59.333 32 -105.498 76.832 -138.498 134.499s-49.5 124.167 -49.5 199.5v70c0 75.333 16.5 141.833 49.5 199.5s79.167 102.5 138.5 134.5s127.333 48 204 48c75.333 0 142.666 -15.833 201.999 -47.5s105.666 -76.167 138.999 -133.5s50 -122.666 50 -195.999
v-70c0 -64 -16 -112.833 -48 -146.5s-72.333 -50.5 -121 -50.5c-30 0 -55.667 5.66699 -77 17c-21.3359 11.333 -37.6689 27.333 -49 48c-21.334 -43.333 -64.001 -65 -128.001 -65c-100.667 0 -151 60.333 -151 181v88c0 57.333 11.833 102 35.5 134s59.834 48 108.501 48
c24 0 45.167 -4.66699 63.5 -14s31.833 -21.666 40.5 -36.999v40h109v-285c0 -21.334 4.5 -37.167 13.5 -47.5s20.833 -15.5 35.5 -15.5c18.667 0 32.667 8.16699 42 24.5s14 42.833 14 79.5v70c0 56.667 -11.167 105.834 -33.5 147.501s-54.333 73.834 -96 96.501
s-91.5 34 -149.5 34c-87.333 0 -155.833 -25 -205.5 -75s-74.5 -118.333 -74.5 -205v-71c0 -56.667 11.167 -106.334 33.5 -149.001s54.5 -75.667 96.5 -99s92 -35 150 -35c40 0 76 4.16699 108 12.5s65 21.166 99 38.499l44 -85c-38.667 -22.667 -78 -39.334 -118 -50.001
s-84.333 -16 -133 -16c-76.667 0 -144.667 16 -204 48zM501.002 237.999v84c0 59.333 -22 89 -66 89c-23.333 0 -40.5 -7.83301 -51.5 -23.5s-16.5 -37.167 -16.5 -64.5v-82c0 -30 5.33301 -53 16 -69s28 -24 52 -24c44 0 66 30 66 90z" />
    <glyph glyph-name="A" unicode="A" horiz-adv-x="681" 
d="M487 134h-293l-50 -134h-140l283 690h107l283 -690h-140zM446 243l-106 281l-105 -281h211z" />
    <glyph glyph-name="B" unicode="B" horiz-adv-x="654" 
d="M581.5 294c18.333 -26.667 27.501 -58.668 27.501 -96.001c0 -63.333 -20.5 -112.166 -61.5 -146.499s-99.833 -51.5 -176.5 -51.5h-312v690h299c78 0 137.667 -16.5 179 -49.5s62 -80.5 62 -142.5c0 -31.333 -8.5 -59.5 -25.5 -84.5s-41.167 -44.5 -72.5 -58.5
c35.333 -14 62.166 -34.333 80.499 -61zM190.001 575.999v-168h169c72.667 0 109 27.333 109 82c0 57.333 -34.667 86 -104 86h-174zM479.001 206.999c0 58 -37 87 -111 87h-178v-180h183c70.667 0 106 31 106 93z" />
    <glyph glyph-name="C" unicode="C" horiz-adv-x="673" 
d="M132.5 65c-51.667 50.667 -77.499 126.332 -77.499 226.999v108c0 100.667 26 176.334 78 227.001s124.333 76 217 76c84.667 0 152.167 -20.833 202.5 -62.5s75.5 -99.5 75.5 -173.5v-8h-131v4c0 38.667 -13 69.167 -39 91.5s-62 33.5 -108 33.5
c-54.667 0 -95.5 -16 -122.5 -48s-40.5 -81 -40.5 -147v-99c0 -63.333 13.667 -110.333 41 -141s68.333 -46 123 -46c46 0 81.833 10.833 107.5 32.5s38.5 51.5 38.5 89.5v5h130v-5c0 -76 -25 -135 -75 -177s-117.667 -63 -203 -63c-92.667 0 -164.834 25.333 -216.501 76z
" />
    <glyph glyph-name="D" unicode="D" horiz-adv-x="662" 
d="M59 690l268.999 0.000976562c92 0 163.167 -24.667 213.5 -74s75.5 -125.333 75.5 -228v-85c0 -102.667 -25.667 -178.834 -77 -228.501s-123.666 -74.5 -216.999 -74.5h-264v690zM326.999 114.001c54 0 94 15.168 120 45.501s39 78.166 39 143.499v78
c0 68 -13 117.5 -39 148.5s-66 46.5 -120 46.5h-137v-462h137z" />
    <glyph glyph-name="E" unicode="E" horiz-adv-x="587" 
d="M190 576v-171h311v-114h-311v-177h362v-114h-493v690h493v-114h-362z" />
    <glyph glyph-name="F" unicode="F" horiz-adv-x="582" 
d="M190 576v-177h313v-114h-313v-285h-131v690h493v-114h-362z" />
    <glyph glyph-name="G" unicode="G" horiz-adv-x="673" 
d="M133 65c-52 50.667 -78 126.331 -78 226.998v108c0 100.667 26 176.334 78 227.001s124.333 76 217 76c55.333 0 104 -9.16699 146 -27.5c42 -18.335 74.5 -45.168 97.5 -80.5c23 -35.333 34.5 -77 34.5 -125v-8h-131v4c0 36.667 -13 66.167 -39 88.5s-62 33.5 -108 33.5
c-54.667 0 -95.5 -15.833 -122.5 -47.5s-40.5 -80.5 -40.5 -146.5v-99c0 -64.667 13.5 -112.167 40.5 -142.5s68.167 -45.5 123.5 -45.5c50 0 87 10.833 111 32.5s36 54.167 36 97.5v25h-151v108h281v-114c0 -89.333 -24.833 -156.166 -74.5 -200.499
s-117.834 -66.5 -204.5 -66.5c-92 0 -164 25.333 -216 76z" />
    <glyph glyph-name="H" unicode="H" horiz-adv-x="671" 
d="M612 690v-690h-131v292h-291v-292h-131v690h131v-284h291v284h131z" />
    <glyph glyph-name="I" unicode="I" horiz-adv-x="261" 
d="M65 690h131v-690h-131v690z" />
    <glyph glyph-name="J" unicode="J" horiz-adv-x="362" 
d="M24 115h61c30.667 0 51.667 5.83301 63 17.5s17 32.5 17 62.5v495h132v-517c0 -57.333 -15 -100.5 -45 -129.5s-74.333 -43.5 -133 -43.5h-95v115z" />
    <glyph glyph-name="K" unicode="K" horiz-adv-x="678" 
d="M307 318l-117 -126v-192h-131v690h131v-335l294 335h168l-257 -278l277 -412h-159z" />
    <glyph glyph-name="L" unicode="L" horiz-adv-x="570" 
d="M59 690h131v-576h356v-114h-487v690z" />
    <glyph glyph-name="M" unicode="M" horiz-adv-x="809" 
d="M750 690v-690h-131v437l-169 -304h-88l-172 307v-440h-131v690h131l216 -395l213 395h131z" />
    <glyph glyph-name="N" unicode="N" horiz-adv-x="699" 
d="M640 690v-690h-131l-319 457v-457h-131v690h131l319 -458v458h131z" />
    <glyph glyph-name="O" unicode="O" horiz-adv-x="673" 
d="M130 65c-50 50.667 -75.001 126.333 -75.001 227v108c0 100.667 25.5 176.334 76.5 227.001s121.5 76 211.5 76c88.667 0 158.334 -25.333 209.001 -76s76 -126.334 76 -227.001v-108c0 -100 -25.833 -175.5 -77.5 -226.5s-122.167 -76.5 -211.5 -76.5
s-159 25.333 -209 76zM496.999 293.999v99c0 130 -51.333 195 -154 195c-52.667 0 -91.834 -16 -117.501 -48s-38.5 -81 -38.5 -147v-99c0 -63.333 12.833 -110.333 38.5 -141s64.834 -46 117.501 -46c102.667 0 154 62.333 154 187z" />
    <glyph glyph-name="P" unicode="P" horiz-adv-x="628" 
d="M538.5 634c43.667 -37.334 65.5 -90.667 65.5 -160c0 -66.667 -21.833 -118.667 -65.5 -156s-105.834 -56 -186.5 -56h-162v-262h-131v690h298c77.333 0 137.833 -18.667 181.5 -56zM473 475c0 34 -9.66797 59.333 -29.001 76s-46.666 25 -81.999 25h-172v-199h172
c74 0 111 32.667 111 98z" />
    <glyph glyph-name="Q" unicode="Q" horiz-adv-x="673" 
d="M528 46l78.999 -145.001l-100 -55l-83 152c-26 -6 -54.333 -9 -85 -9c-89.333 0 -159 25.333 -209 76s-75 126.334 -75 227.001v108c0 100.667 25.5 176.334 76.5 227.001s121.5 76 211.5 76c88.667 0 158.334 -25.333 209.001 -76s76 -126.334 76 -227.001v-108
c0 -112 -33.333 -194 -100 -246zM225.499 152.999c25.667 -30.667 64.834 -46 117.501 -46c102.667 0 154 62.333 154 187v99c0 130 -51.333 195 -154 195c-52.667 0 -91.834 -16 -117.501 -48s-38.5 -81 -38.5 -147v-99c0 -63.333 12.833 -110.333 38.5 -141z" />
    <glyph glyph-name="R" unicode="R" horiz-adv-x="664" 
d="M327 271l-137 -0.000976562v-271h-131v690h300c75.333 0 134.833 -18 178.5 -54s65.5 -88 65.5 -156c0 -49.333 -11.833 -90.166 -35.5 -122.499s-58.5 -55.833 -104.5 -70.5l171 -287h-156zM190 382.999h173c73.333 0 110 32.333 110 97c0 32 -9.66699 56 -29 72
s-46.333 24 -81 24h-173v-193z" />
    <glyph glyph-name="S" unicode="S" horiz-adv-x="608" 
d="M105 49.5c-46 37 -71.668 90.5029 -77.001 160.503h125c4.66699 -36.667 19.5 -63.167 44.5 -79.5s61.5 -24.5 109.5 -24.5c94 0 141 31 141 93c0 27.333 -9.33301 48.166 -28 62.499s-49.334 23.833 -92 28.5l-73 9c-140 17.333 -210 81.666 -210 192.999
c0 64.667 23.333 115.5 70 152.5s110.334 55.5 191.001 55.5c78 0 139 -17.667 183 -53s68.667 -86.333 74 -153h-126c-2.66797 33.333 -14.835 57.666 -36.5 72.999c-21.667 15.333 -54.167 23 -97.5 23s-76 -7.66699 -98 -23s-33 -37 -33 -65
c0 -25.333 9.66699 -45 29 -59s50.333 -23.667 93 -29l83 -11c65.333 -8.66699 115 -29.167 149 -61.5s51 -76.5 51 -132.5c0 -69.333 -24.667 -122.5 -74 -159.5s-117 -55.5 -203 -55.5c-84 0 -149 18.5 -195 55.5z" />
    <glyph glyph-name="T" unicode="T" horiz-adv-x="557" 
d="M551 576h-207v-576h-131v576h-207v114h545v-114z" />
    <glyph glyph-name="U" unicode="U" horiz-adv-x="676" 
d="M191 25c-42 20.667 -74.499 50.167 -97.499 88.5s-34.5 83.166 -34.5 134.499v442h131v-438c0 -46.667 12.667 -82.334 38 -107.001s61.666 -37 108.999 -37s84 12.333 110 37s39 60.334 39 107.001v438h131v-442c0 -51.333 -11.5 -96.166 -34.5 -134.499
s-55.667 -67.833 -98 -88.5s-91.5 -31 -147.5 -31c-55.333 0 -104 10.333 -146 31z" />
    <glyph glyph-name="V" unicode="V" horiz-adv-x="623" 
d="M4 690h140l167 -497l168 497h140l-256 -690h-105z" />
    <glyph glyph-name="W" unicode="W" horiz-adv-x="936" 
d="M932 690l-193 -690h-120l-148 531l-149 -531h-119l-199 690h134l131 -505l121 505h162l133 -505l118 505h129z" />
    <glyph glyph-name="X" unicode="X" horiz-adv-x="666" 
d="M253 358l-231 332h161l153 -228l143 228h158l-227 -326l252 -364h-161l-173 259l-166 -259h-158z" />
    <glyph glyph-name="Y" unicode="Y" horiz-adv-x="608" 
d="M370 285v-285h-131v284l-235 406h148l152 -289l152 289h148z" />
    <glyph glyph-name="Z" unicode="Z" horiz-adv-x="561" 
d="M534 115v-115h-504v115l344 461h-337v114h487v-114l-343 -461h353z" />
    <glyph glyph-name="bracketleft" unicode="[" horiz-adv-x="341" 
d="M59 741h237v-115h-113v-595h113v-115h-237v825z" />
    <glyph glyph-name="backslash" unicode="\" horiz-adv-x="445" 
d="M46 695h104l250 -705h-104z" />
    <glyph glyph-name="bracketright" unicode="]" horiz-adv-x="342" 
d="M46 31h113v594h-113v114h237v-823h-237v115z" />
    <glyph glyph-name="asciicircum" unicode="^" horiz-adv-x="529" 
d="M212 695h104l170 -424h-103l-119 304l-119 -304h-103z" />
    <glyph glyph-name="underscore" unicode="_" horiz-adv-x="563" 
d="M0 -40h563v-81h-563v81z" />
    <glyph glyph-name="grave" unicode="`" 
d="M47 721h161l132 -133h-117z" />
    <glyph glyph-name="a" unicode="a" horiz-adv-x="553" 
d="M439.5 476c39.667 -33.333 59.499 -81.334 59.499 -144.001v-332h-120v48c-20.667 -19.333 -42.667 -33.166 -66 -41.499s-51.666 -12.5 -84.999 -12.5c-62.667 0 -110.167 14 -142.5 42s-48.5 67.667 -48.5 119c0 49.333 17.167 87 51.5 113s83.833 39 148.5 39h139v31
c0 62 -36.667 93 -110 93c-33.333 0 -57.5 -6 -72.5 -18s-22.5 -27.333 -22.5 -46v-3h-118v3c0 49.334 19.5 88.167 58.5 116.5s91.5 42.5 157.5 42.5c74 0 130.833 -16.667 170.5 -50zM375.999 189.999v32h-116c-35.333 0 -61.333 -5.16699 -78 -15.5s-25 -26.5 -25 -48.5
c0 -20.667 8.16699 -36.667 24.5 -48s40.833 -17 73.5 -17c80.667 0 121 32.333 121 97z" />
    <glyph glyph-name="b" unicode="b" horiz-adv-x="571" 
d="M175 53v-53h-121v690h124v-229c16.667 21.333 37.334 38 62 50c24.667 12 52.334 18 83.001 18c62 0 111.333 -20 148 -60s55 -97.667 55 -173v-65c0 -50 -8.83301 -93.167 -26.5 -129.5c-17.668 -36.333 -41.835 -63.833 -72.501 -82.5
c-30.667 -18.667 -65.667 -28 -105 -28c-62 0 -111 20.667 -147 62zM374 135.5c18.667 22.333 28 55.833 28 100.5v54c0 86 -37 129 -111 129c-35.333 0 -63 -11.167 -83 -33.5s-30 -53.5 -30 -93.5v-66c0 -38 10.333 -68.167 31 -90.5s48.667 -33.5 84 -33.5
s62.333 11.167 81 33.5z" />
    <glyph glyph-name="c" unicode="c" horiz-adv-x="559" 
d="M109 52c-42 40.667 -63 99.999 -63 177.999v62c0 77.334 21 136.167 63 176.5s100 60.5 174 60.5c72.667 0 129.334 -17 170.001 -51s61 -81 61 -141v-6h-121v4c0 26 -9.5 46.5 -28.5 61.5s-45.167 22.5 -78.5 22.5c-38.667 0 -67.834 -10.333 -87.501 -31
s-29.5 -53.334 -29.5 -98v-59c0 -45.333 10 -78.166 30 -98.499s50 -30.5 90 -30.5c32 0 57.167 7.16699 75.5 21.5s27.5 33.833 27.5 58.5v4h121v-4c0 -59.333 -20.333 -106 -61 -140s-97 -51 -169 -51c-74 0 -132 20.333 -174 61z" />
    <glyph glyph-name="d" unicode="d" horiz-adv-x="571" 
d="M101.5 52c-37 40.667 -55.499 99.334 -55.499 176.001v65c0 50 8.5 92.667 25.5 128c17 35.334 40.667 62.167 71 80.499c30.333 18.333 65.166 27.5 104.499 27.5c61.333 0 110.333 -21.667 147 -65v226h123v-690h-121v56c-34 -43.333 -83 -65 -147 -65
c-61.333 0 -110.5 20.333 -147.5 61zM362.501 135c21 22 31.5 52.333 31.5 91v66c0 40 -10 71.167 -30 93.5s-48 33.5 -84 33.5c-35.333 0 -62.5 -10.833 -81.5 -32.5s-28.5 -54.834 -28.5 -99.5v-54c0 -44 9.33301 -76.833 28 -98.5s45 -32.5 79 -32.5
c36 0 64.5 11 85.5 33z" />
    <glyph glyph-name="e" unicode="e" horiz-adv-x="571" 
d="M169 226l-0.000976562 -2c0 -83.333 42.667 -125 128 -125c28.667 0 52.167 5.33301 70.5 16s28.833 25.667 31.5 45l1 3h121v-6c-3.33398 -50 -25.501 -90.167 -66.5 -120.5c-41 -30.333 -95.167 -45.5 -162.5 -45.5c-76.667 0 -136.834 21 -180.501 63
s-65.5 103.333 -65.5 184v45c0 79.334 21.333 140.167 64 182.5s101.334 63.5 176.001 63.5s133.334 -21 176.001 -63s64 -102 64 -180v-60h-357zM168.999 311l233 -0.000976562v7c0 34.667 -10.5 60.834 -31.5 78.501s-49.167 26.5 -84.5 26.5
c-73.333 0 -112.333 -37.333 -117 -112z" />
    <glyph glyph-name="f" unicode="f" horiz-adv-x="368" 
d="M244 592c-10 -9.33594 -15 -24.6689 -15 -46v-26h112v-87h-112v-433h-123v433h-70v87h70v21c0 49.333 13 86.5 39 111.5s64.333 37.5 115 37.5h81v-84h-46c-24 0 -41 -4.66699 -51 -14z" />
    <glyph glyph-name="g" unicode="g" horiz-adv-x="571" 
d="M118 -125c-38 26 -58 64 -60 114h119c4.66699 -17.333 15.5 -30.833 32.5 -40.5s40.167 -14.5 69.5 -14.5c77.333 0 116 35.333 116 106v54c-33.333 -43.333 -82 -65 -146 -65c-61.333 0 -110.5 20 -147.5 60s-55.5 97.333 -55.5 172v40c0 72 18.5 128 55.5 168
s85.5 60 145.5 60c60.667 0 110 -21.667 148 -65v56h122v-472c0 -66 -21.5 -117.833 -64.5 -155.5s-102.833 -56.5 -179.5 -56.5c-65.333 0 -117 13 -155 39zM362.5 172c21 21.333 31.5 50.333 31.5 87v41c0 36.667 -10.333 65.667 -31 87s-48.667 32 -84 32
c-34.667 0 -61.5 -10.167 -80.5 -30.5s-28.5 -51.5 -28.5 -93.5v-29c0 -42 9.16699 -73.5 27.5 -94.5s44.833 -31.5 79.5 -31.5c36 0 64.5 10.667 85.5 32z" />
    <glyph glyph-name="h" unicode="h" horiz-adv-x="572" 
d="M54 690h124v-225c18 20 40 35.167 66 45.5s54 15.5 84 15.5c60 0 106.667 -17.667 140 -53s50 -85 50 -149v-324h-124v299c0 78 -34.333 117 -103 117c-35.333 0 -63 -10.167 -83 -30.5s-30 -50.833 -30 -91.5v-294h-124v690z" />
    <glyph glyph-name="i" unicode="i" horiz-adv-x="241" 
d="M59 693h123v-99h-123v99zM59 520h123v-520h-123v520z" />
    <glyph glyph-name="j" unicode="j" horiz-adv-x="241" 
d="M59 693h123v-99h-123v99zM-60 -49l47.002 -0.000976562c27.333 0 46.166 5 56.499 15s15.5 28 15.5 54v500h123v-508c0 -57.333 -14.333 -99.666 -43 -126.999s-73.334 -41 -134.001 -41h-65v107z" />
    <glyph glyph-name="k" unicode="k" horiz-adv-x="577" 
d="M252 233l-74 -72v-161h-124v690h124v-390l211 220h159l-209 -203l224 -317h-157z" />
    <glyph glyph-name="l" unicode="l" horiz-adv-x="314" 
d="M96.5 41.5c-28.333 27.667 -42.5 69.832 -42.5 126.499v522h124v-514c0 -25.333 5.16699 -43.166 15.5 -53.499s28.833 -15.5 55.5 -15.5h47v-107h-69c-58.667 0 -102.167 13.833 -130.5 41.5z" />
    <glyph glyph-name="m" unicode="m" horiz-adv-x="896" 
d="M54 520l121 -0.000976562v-56c18 20 40 35.333 66 46s53 16 81 16c31.333 0 60 -5.83301 86 -17.5s47.667 -29.167 65 -52.5c44 46.667 99.667 70 167 70c64 0 113.667 -17.833 149 -53.5s53 -85.167 53 -148.5v-324h-124v299c0 38.667 -8.5 67.834 -25.5 87.501
s-41.833 29.5 -74.5 29.5c-34 0 -60.5 -10.5 -79.5 -31.5s-28.5 -50.5 -28.5 -88.5v-296h-124v304c0 37.333 -8.5 65.333 -25.5 84s-41.5 28 -73.5 28c-34.667 0 -61.5 -10.5 -80.5 -31.5s-28.5 -51.167 -28.5 -90.5v-294h-124v520z" />
    <glyph glyph-name="n" unicode="n" horiz-adv-x="572" 
d="M54 520h121v-56c18.667 20 41.167 35.333 67.5 46s54.833 16 85.5 16c60 0 106.667 -17.833 140 -53.5s50 -85.167 50 -148.5v-324h-124v299c0 78 -34.333 117 -103 117c-35.333 0 -63 -10.167 -83 -30.5s-30 -50.833 -30 -91.5v-294h-124v520z" />
    <glyph glyph-name="o" unicode="o" horiz-adv-x="563" 
d="M109 52c-42 40.667 -63 100 -63 178v62c0 77.334 21 136.167 63 176.5s100 60.5 174 60.5c73.333 0 130.833 -20.333 172.5 -61s62.5 -99.334 62.5 -176v-62c0 -78 -20.833 -137.333 -62.5 -178s-99.167 -61 -172.5 -61c-74 0 -132 20.333 -174 61zM395 231v59
c0 44 -9.66699 76.5 -29 97.5s-47 31.5 -83 31.5c-76 0 -114 -43 -114 -129v-59c0 -86 38 -129 114 -129c74.667 0 112 43 112 129z" />
    <glyph glyph-name="p" unicode="p" horiz-adv-x="571" 
d="M54 520h121.001v-59c38.667 45.333 88 68 148 68c62 0 111.333 -20 148 -60s55 -97.667 55 -173v-65c0 -50 -8.83301 -93.167 -26.5 -129.5c-17.668 -36.333 -41.835 -63.833 -72.501 -82.5c-30.667 -18.667 -65.667 -28 -105 -28c-62 0 -110 20.667 -144 62v-209h-124
v676zM374.001 135.5c18.667 22.333 28 55.833 28 100.5v54c0 86 -37 129 -111 129c-35.333 0 -63 -11.167 -83 -33.5s-30 -53.5 -30 -93.5v-66c0 -38 10.333 -68.167 31 -90.5s48.667 -33.5 84 -33.5s62.333 11.167 81 33.5z" />
    <glyph glyph-name="q" unicode="q" horiz-adv-x="571" 
d="M394 56c-33.333 -43.333 -81.667 -65.001 -145 -65.001c-61.333 0 -110.5 20.333 -147.5 61s-55.5 99.334 -55.5 176.001v65c0 74.667 18.667 132.667 56 174s86.333 62 147 62c59.333 0 108.333 -21.667 147 -65v56h121v-676h-123v212zM362.499 134.999
c21 22 31.5 52.333 31.5 91v66c0 40 -10 71.167 -30 93.5s-48 33.5 -84 33.5c-35.333 0 -62.5 -10.833 -81.5 -32.5s-28.5 -54.834 -28.5 -99.5v-54c0 -44 9.33301 -76.833 28 -98.5s45 -32.5 79 -32.5c36 0 64.5 11 85.5 33z" />
    <glyph glyph-name="r" unicode="r" horiz-adv-x="394" 
d="M54 520h121.001v-59c17.333 23.333 39.166 40.833 65.499 52.5c26.334 11.667 55.167 17.5 86.5 17.5c19.334 0 35.667 -1.33301 49 -4v-118c-22.667 8.66699 -47.334 13 -74 13c-39.333 0 -69.833 -11.5 -91.5 -34.5s-32.5 -56.167 -32.5 -99.5v-288h-124v520z" />
    <glyph glyph-name="s" unicode="s" horiz-adv-x="526" 
d="M96 37.5c-39.333 29 -58.999 69.833 -58.999 122.5v3h116v-2c0 -20.667 9.66699 -37 29 -49s48 -18 86 -18c35.334 0 62.167 5 80.5 15s27.5 24.667 27.5 44c0 16 -6.5 28.333 -19.5 37s-34.167 14.667 -63.5 18l-77 9c-58.667 7.33301 -101.834 22.833 -129.501 46.5
s-41.5 57.5 -41.5 101.5c0 51.333 19.333 91 58 119s91.667 42 159 42c69.334 0 123.667 -14 163 -42s59 -66.667 59 -116v-4h-115v3c0 20 -9 35.333 -27 46s-45 16 -81 16c-34 0 -59.167 -4.83301 -75.5 -14.5s-24.5 -23.5 -24.5 -41.5c0 -14.667 5.66699 -26.334 17 -35
c11.333 -8.66895 30.333 -14.3359 57 -17l83 -10c60 -6.66699 104.333 -22.5 133 -47.5s43 -59.167 43 -102.5c0 -54 -20.833 -95.333 -62.5 -124s-98.5 -43 -170.5 -43c-70.667 0 -125.667 14.5 -165 43.5z" />
    <glyph glyph-name="t" unicode="t" horiz-adv-x="395" 
d="M239 433l-0.000976562 -264.999c0 -22.667 4.83301 -38.834 14.5 -48.501s25.834 -14.5 48.501 -14.5h44v-105h-67c-52.667 0 -93 13.833 -121 41.5s-42 67.167 -42 118.5v273h-91v87h91v102l123 43v-145h118v-87h-118z" />
    <glyph glyph-name="u" unicode="u" horiz-adv-x="572" 
d="M112.5 48.5c-39 38.333 -58.501 94.833 -58.501 169.5v302h124v-296c0 -40 8.5 -70.333 25.5 -91s44.5 -31 82.5 -31c38.667 0 66.334 10.167 83.001 30.5s25 50.833 25 91.5v296h124v-302c0 -75.333 -19.5 -132 -58.5 -170s-96.833 -57 -173.5 -57
s-134.5 19.167 -173.5 57.5z" />
    <glyph glyph-name="v" unicode="v" horiz-adv-x="539" 
d="M9 520h134l127 -353l126 353h134l-210 -520h-102z" />
    <glyph glyph-name="w" unicode="w" horiz-adv-x="826" 
d="M9 520h131l105 -348l121 348h93l123 -348l103 348h132l-179 -520h-105l-120 352l-121 -352h-105z" />
    <glyph glyph-name="x" unicode="x" horiz-adv-x="514" 
d="M370 0l-117 174l-108 -174h-136l180 268l-170 252h136l106 -158l99 158h135l-173 -249l183 -271h-135z" />
    <glyph glyph-name="y" unicode="y" horiz-adv-x="540" 
d="M531 520l-221 -564.999c-14.667 -38 -36.334 -65.667 -65 -83c-28.667 -17.333 -66 -26 -112 -26h-48v111h54c24 0 41.5 3.16699 52.5 9.5s19.833 18.166 26.5 35.499l3 9l-212 509h134l135 -348l124 348h129z" />
    <glyph glyph-name="z" unicode="z" horiz-adv-x="501" 
d="M456 416l-268 -312h268v-104h-410v104l267 312h-267v104h410v-104z" />
    <glyph glyph-name="braceleft" unicode="{" horiz-adv-x="400" 
d="M136 44v153c0 28.667 -6.66699 49.167 -20 61.5s-36.666 18.5 -69.999 18.5v106c33.333 0 56.666 6.16699 69.999 18.5s20 32.833 20 61.5v150c0 84.667 46.667 127 140 127h79v-100h-40c-22.667 0 -38.667 -3.66699 -48 -11s-14 -20 -14 -38v-134
c0 -37.333 -5.33301 -65.5 -16 -84.5s-28.667 -33.167 -54 -42.5c25.333 -9.33301 43.333 -23.5 54 -42.5s16 -47.167 16 -84.5v-138c0.000976562 -18 4.66797 -30.667 14 -38c9.33301 -7.33301 25.333 -11 48 -11h40v-100h-79c-93.333 0 -140 42.667 -140 128z" />
    <glyph glyph-name="bar" unicode="|" horiz-adv-x="296" 
d="M91 740h115v-824h-115v824z" />
    <glyph glyph-name="braceright" unicode="}" horiz-adv-x="400" 
d="M46 16h38.998c22.667 0 38.834 3.83301 48.501 11.5s14.5 20.167 14.5 37.5v138c0 37.333 5.33301 65.5 16 84.5s28.667 33.167 54 42.5c-25.333 9.33301 -43.333 23.5 -54 42.5s-16 47.167 -16 84.5v134c0 18 -4.66699 30.667 -14 38s-25.666 11 -48.999 11h-39v100h79
c92.667 0 139 -42.333 139 -127v-150c0 -28 6.66699 -48.333 20 -61s37 -19 71 -19v-106c-34 0 -57.667 -6.33301 -71 -19s-20 -33 -20 -61v-153c0 -85.333 -46.333 -128 -139 -128h-79v100z" />
    <glyph glyph-name="asciitilde" unicode="~" horiz-adv-x="529" 
d="M39 245c16 35.333 36.332 62.332 60.999 80.999s52 28 82 28c17.333 0 33 -2.66699 47 -8s30.333 -13.333 49 -24c14.667 -8 26.667 -14 36 -18s19 -6 29 -6c14.667 0 27.167 4.33301 37.5 13s20.5 23 30.5 43l80 -49c-15.333 -35.333 -35.5 -62.5 -60.5 -81.5
s-52.833 -28.5 -83.5 -28.5c-17.333 0 -33.166 2.83301 -47.499 8.5s-30.5 13.834 -48.5 24.5c-16 8.66699 -28.333 14.834 -37 18.501s-17.667 5.5 -27 5.5c-14 0 -26.167 -4.33301 -36.5 -13s-20.833 -23 -31.5 -43z" />
    <glyph glyph-name="uni00A0" unicode="&#xa0;" horiz-adv-x="229" 
 />
    <glyph glyph-name="exclamdown" unicode="&#xa1;" horiz-adv-x="249" 
d="M58 520h133v-131h-133v131zM78 290h93l24 -446h-141z" />
    <glyph glyph-name="cent" unicode="&#xa2;" horiz-adv-x="559" 
d="M393 331l0.000976562 3.99902c0 26 -9.5 46.5 -28.5 61.5s-45.167 22.5 -78.5 22.5c-38.667 0 -67.834 -10.333 -87.501 -31s-29.5 -53.334 -29.5 -98v-59c0 -45.333 10 -78.166 30 -98.499s50 -30.5 90 -30.5c32 0 57.167 7.16699 75.5 21.5s27.5 33.833 27.5 58.5v4
h121v-4c0 -54 -16.833 -97.5 -50.5 -130.5s-80.5 -52.5 -140.5 -58.5v-93h-72v92c-64.667 6 -114.834 29.167 -150.501 69.5s-53.5 96.5 -53.5 168.5v62c0 71.333 18 127 54 167s86 63 150 69v90h72v-91c60.667 -6 107.834 -25.5 141.501 -58.5s50.5 -76.833 50.5 -131.5v-6
h-121z" />
    <glyph glyph-name="sterling" unicode="&#xa3;" horiz-adv-x="518" 
d="M220.5 155.5c-5.66699 -16.333 -14.501 -30.499 -26.501 -42.499h302v-113h-448v108c18 7.33301 30.833 18 38.5 32s11.5 34.333 11.5 61v75h-70v114h70v112c0 62.668 17.667 111.335 53 146c35.333 34.667 85.333 52 150 52c60.667 0 108.334 -15 143.001 -45
s52 -72 52 -126h-122c0 19.333 -6 34.166 -18 44.499s-29.667 15.5 -53 15.5c-24 0 -42.333 -6.16699 -55 -18.5c-12.667 -12.3359 -19 -30.1689 -19 -53.5v-127h162v-114h-162v-62c0 -22.667 -2.83301 -42.167 -8.5 -58.5z" />
    <glyph glyph-name="currency" unicode="&#xa4;" horiz-adv-x="595" 
d="M402 140c-31.333 -18.667 -66.333 -28 -105 -28s-73.667 9.33301 -105 28l-65 -65l-73 73l66 66c-17.333 29.333 -26 63.333 -26 102c0 36 9 70 27 102l-67 67l73 73l66 -66c32 18 66.667 27 104 27s72 -9 104 -27l67 66l72 -73l-66 -67c18 -32 27 -66 27 -102
c0 -38 -8.66699 -72.333 -26 -103l66 -66l-73 -73zM371 240.5c19.333 20.333 29 45.5 29 75.5s-9.66699 55 -29 75s-44 30 -74 30c-29.333 0 -53.666 -10 -72.999 -30s-29 -45 -29 -75s9.66699 -55.167 29 -75.5s43.666 -30.5 72.999 -30.5c30 0 54.667 10.167 74 30.5z" />
    <glyph glyph-name="yen" unicode="&#xa5;" horiz-adv-x="558" 
d="M214 117h-154v88h154v55h-154v88h132l-185 342h142l133 -277l127 277h142l-185 -342h132v-88h-154v-55h154v-88h-154v-117h-130v117z" />
    <glyph glyph-name="brokenbar" unicode="&#xa6;" horiz-adv-x="296" 
d="M91 740h115v-352h-115v352zM91 270h115v-354h-115v354z" />
    <glyph glyph-name="section" unicode="&#xa7;" horiz-adv-x="560" 
d="M127.5 -123c-35 30 -52.5 72.334 -52.5 127.001h113c0 -22.667 7.5 -40 22.5 -52s37.167 -18 66.5 -18c26.667 0 47.167 5.33301 61.5 16s21.5 25.667 21.5 45c0 24 -10.333 42.333 -31 55s-55.334 24.667 -104 36c-110.667 28 -166 90.333 -166 187
c0 36.667 8.5 68.167 25.5 94.5s41.167 46.833 72.5 61.5c-48.667 26 -73 68 -73 126c0 31.333 8.33301 59.166 25 83.499s40 43.333 70 57s65 20.5 105 20.5c63.333 0 112 -15.333 146 -46s51 -72.334 51 -125.001h-112c0 22 -7.16699 39 -21.5 51s-35.833 18 -64.5 18
c-25.333 0 -45 -5.16699 -59 -15.5c-14 -10.3359 -21 -25.1689 -21 -44.5c0 -23.333 9.83301 -40.833 29.5 -52.5s54.167 -23.5 103.5 -35.5c110 -28 165 -89.667 165 -185c0 -38 -9 -70.333 -27 -97s-42 -46.667 -72 -60c28 -14 47.833 -31.667 59.5 -53s17.5 -47 17.5 -77
c0 -49.333 -18.5 -88.666 -55.5 -117.999s-86.167 -44 -147.5 -44c-64 0 -113.5 15 -148.5 45zM355.5 211.001c17 15.333 25.501 37 25.501 65c0 28.667 -8.5 50.5 -25.5 65.5s-41.833 22.5 -74.5 22.5c-33.334 0 -58.667 -7.5 -76 -22.5s-26 -36.833 -26 -65.5
c0 -28 8.66699 -49.667 26 -65s42.666 -23 75.999 -23c32.667 0 57.5 7.66699 74.5 23z" />
    <glyph glyph-name="dieresis" unicode="&#xa8;" 
d="M82 703h107v-116h-107v116zM311 703h107v-116h-107v116z" />
    <glyph glyph-name="copyright" unicode="&#xa9;" horiz-adv-x="784" 
d="M216.5 35c-51.667 29.333 -91.5 70.5 -119.5 123.5s-42 114.167 -42 183.5c0 70 14 131.5 42 184.5s67.833 94 119.5 123s111.834 43.5 180.501 43.5s128.834 -14.667 180.501 -44s91.5 -70.5 119.5 -123.5s42 -114.167 42 -183.5s-14 -130.5 -42 -183.5
s-67.833 -94.167 -119.5 -123.5s-111.834 -44 -180.501 -44s-128.834 14.667 -180.501 44zM588.5 141.5c46.333 49 69.5 115.833 69.5 200.5s-23.167 151.667 -69.5 201s-110.166 74 -191.499 74s-145.166 -24.667 -191.499 -74s-69.5 -116.333 -69.5 -201
s23.167 -151.5 69.5 -200.5s110.166 -73.5 191.499 -73.5s145.166 24.5 191.499 73.5zM276.5 192c-29.667 29.333 -44.502 71.999 -44.502 127.999v44c0 56 14.833 98.667 44.5 128s69.834 44 120.501 44c50 0 89.5 -12.333 118.5 -37s43.5 -58.334 43.5 -101v-5h-87v3
c0 18.667 -6.5 33.334 -19.5 44.001s-30.5 16 -52.5 16c-26 0 -45.667 -7.33301 -59 -22s-20 -38.334 -20 -71v-43c0 -32.667 6.83301 -56.334 20.5 -71c13.667 -14.667 33.834 -22 60.501 -22c21.333 0 38.333 5.16699 51 15.5s19 24.5 19 42.5v3h87v-3
c0 -42.667 -14.5 -76.167 -43.5 -100.5s-68.5 -36.5 -118.5 -36.5c-50.667 0 -90.834 14.667 -120.5 44z" />
    <glyph glyph-name="ordfeminine" unicode="&#xaa;" horiz-adv-x="377" 
d="M333 624l0.000976562 -194h-86v30c-12.667 -12 -26 -20.667 -40 -26s-31.333 -8 -52 -8c-38 0 -67.333 9 -88 27s-31 42.667 -31 74c0 30 10.667 52.833 32 68.5s53 23.5 95 23.5h81v11c0 18 -5 31.167 -15 39.5s-25.667 12.5 -47 12.5
c-18.667 0 -32.334 -3.16699 -41.001 -9.5c-8.66699 -6.33887 -13 -14.1719 -13 -23.5v-2h-82v2c0 30 11.667 54 35 72s57.333 27 102 27c100 0 150 -41.333 150 -124zM244.001 552v9h-70c-34.667 0 -52 -10.333 -52 -31c0 -10.667 4.5 -19 13.5 -25s22.167 -9 39.5 -9
c46 0 69 18.667 69 56z" />
    <glyph glyph-name="guillemotleft" unicode="&#xab;" horiz-adv-x="582" 
d="M18 264l255 227v-125l-116 -102l116 -102v-125zM273 264l255 227v-125l-117 -102l117 -102v-125z" />
    <glyph glyph-name="logicalnot" unicode="&#xac;" horiz-adv-x="529" 
d="M355 254h-305v111h428v-245h-123v134z" />
    <glyph glyph-name="uni00AD" unicode="&#xad;" horiz-adv-x="400" 
d="M46 403h309v-115h-309v115z" />
    <glyph glyph-name="registered" unicode="&#xae;" horiz-adv-x="495" 
d="M150.5 333c-28.333 16.667 -50.667 39.666 -67 68.999s-24.5 62 -24.5 98s8.16699 68.5 24.5 97.5s38.833 51.833 67.5 68.5s60.667 25 96 25c36 0 68.333 -8.33301 97 -25s51.167 -39.667 67.5 -69c16.333 -29.334 24.5 -61.667 24.5 -96.999
c0 -36 -8.16699 -68.667 -24.5 -98s-38.833 -52.333 -67.5 -69s-61 -25 -97 -25s-68.167 8.33301 -96.5 25zM352.499 390.499c27 28.333 40.5 64.833 40.5 109.5s-13.667 81 -41 109s-62.333 42 -105 42s-77.667 -14 -105 -42s-41 -64.333 -41 -109
s13.667 -81.167 41 -109.5s62.333 -42.5 105 -42.5c43.333 0 78.5 14.167 105.5 42.5zM169.999 606.999h88c24.667 0 43.667 -5.66699 57 -17c13.333 -11.3359 20 -27.6689 20 -49c0 -28 -12.333 -48 -37 -60l42 -86h-56l-37 78h-25v-78h-52v212zM254.999 516.999
c18.667 0 28 7.66699 28 23s-9.33301 23 -28 23h-33v-46h33z" />
    <glyph glyph-name="macron" unicode="&#xaf;" 
d="M91 700h318v-110h-318v110z" />
    <glyph glyph-name="degree" unicode="&#xb0;" horiz-adv-x="394" 
d="M97 449c-28 28 -42.001 63.001 -42.001 105.001c0 27.333 6.33301 52.166 19 74.499s30.334 40 53.001 53s47.667 19.5 75 19.5s52.166 -6.5 74.499 -19.5s40 -30.667 53 -53c13 -22.334 19.5 -47.167 19.5 -74.499c0 -27.334 -6.5 -52.334 -19.5 -75
c-13 -22.667 -30.667 -40.334 -53 -53.001s-47.166 -19 -74.499 -19c-42 0 -77 14 -105 42zM251.499 502.501c13 13.6689 19.5 30.834 19.5 51.499c0 20.6689 -6.5 37.8359 -19.5 51.5c-13 13.667 -29.5 20.5 -49.5 20.5c-20.667 0 -37.334 -6.66699 -50.001 -20
c-12.667 -13.3359 -19 -30.6689 -19 -52c0 -21.335 6.33301 -38.668 19 -51.999c12.667 -13.333 29.334 -20 50.001 -20c20 0 36.5 6.83301 49.5 20.5z" />
    <glyph glyph-name="plusminus" unicode="&#xb1;" horiz-adv-x="529" 
d="M208 281h-160v114h160v160h114v-160h159v-114h-159v-160h-114v160zM48 78h433v-114h-433v114z" />
    <glyph glyph-name="uni00B2" unicode="&#xb2;" horiz-adv-x="390" 
d="M50 510l153.999 155c12.667 11.333 21.667 21.5 27 30.5s8 18.167 8 27.5v6c0 27.333 -15.667 41 -47 41c-15.333 0 -27 -3.5 -35 -10.5s-12 -16.833 -12 -29.5v-6h-99v9c0 38 13 68 39 90s62.667 33 110 33c46 0 82.333 -11.333 109 -34s40 -52 40 -88v-8
c0 -24 -5.16699 -45 -15.5 -63s-28.166 -38.333 -53.499 -61l-80 -83h149v-89h-294v80z" />
    <glyph glyph-name="uni00B3" unicode="&#xb3;" horiz-adv-x="384" 
d="M80.5 453.5c-25 20.334 -37.499 50.1689 -37.499 89.501v8h93v-6c0 -25.335 17.667 -38.002 53 -38c16.667 0 29.334 3.66699 38 11c8.66699 7.33301 13 17.666 13 30.999v7c0 30.667 -20 46 -60 46h-24v85h23c36 0 54 13 54 39v7c0 26 -15.667 39 -47 39
c-32.667 0 -49 -12.333 -49 -37v-7h-92v6c0 40 12.5 70.333 37.5 91s60.833 31 107.5 31c44 0 78.667 -10.333 104 -31s38 -48.667 38 -84v-7c0 -17.3359 -4.83301 -33.1689 -14.5 -47.5c-9.66797 -14.333 -23.835 -25.5 -42.501 -33.5
c20.667 -5.33301 36.667 -16.5 48 -33.5s17 -37.5 17 -61.5v-8c0 -38.667 -13.667 -69.5 -41 -92.5s-63.333 -34.5 -108 -34.5c-48.667 0 -85.5 10.167 -110.5 30.5z" />
    <glyph glyph-name="acute" unicode="&#xb4;" 
d="M235 721h137l-138 -133h-107z" />
    <glyph glyph-name="uni00B5" unicode="&#xb5;" horiz-adv-x="572" 
d="M54 520h124v-299c0 -39.334 8.83301 -68.667 26.5 -88s43.167 -29 76.5 -29c34.667 0 62.167 10.333 82.5 31s30.5 51 30.5 91v294h124v-520h-121v56c-12.667 -19.333 -30.834 -34.5 -54.5 -45.5c-23.667 -11 -49.5 -16.5 -77.5 -16.5c-33.333 0 -62.333 6.66699 -87 20
v-170h-124v676z" />
    <glyph glyph-name="paragraph" unicode="&#xb6;" horiz-adv-x="698" 
d="M304 263h-2c-77.333 0 -137.166 18.667 -179.499 56s-63.5 90 -63.5 158s21.167 120.5 63.5 157.5s101.166 55.5 176.499 55.5h310v-846h-109v746h-86v-746h-110v419z" />
    <glyph glyph-name="periodcentered" unicode="&#xb7;" horiz-adv-x="215" 
d="M38 350h139v-142h-139v142z" />
    <glyph glyph-name="cedilla" unicode="&#xb8;" 
d="M230 13h101l-69 -169h-119z" />
    <glyph glyph-name="uni00B9" unicode="&#xb9;" horiz-adv-x="285" 
d="M120 742l-89 -49v106l89 50h103v-419h-103v312z" />
    <glyph glyph-name="ordmasculine" unicode="&#xba;" horiz-adv-x="378" 
d="M77.5 463.5c-26.333 25 -39.5 61.499 -39.5 109.499v32c0 46 13.333 81.333 40 106s63.667 37 111 37s84.333 -12.333 111 -37s40 -60 40 -106v-32c0 -47.333 -13.5 -83.666 -40.5 -108.999s-63.833 -38 -110.5 -38c-48 0 -85.167 12.5 -111.5 37.5zM234.5 523.499
c11 11.667 16.5 28.501 16.5 50.501v31c0 20.6689 -5.5 36.3359 -16.5 47c-11 10.667 -26.167 16 -45.5 16s-34.5 -5.33301 -45.5 -16s-16.5 -26.334 -16.5 -47.001v-31c0 -22 5.5 -38.833 16.5 -50.5s26.167 -17.5 45.5 -17.5s34.5 5.83301 45.5 17.5z" />
    <glyph glyph-name="guillemotright" unicode="&#xbb;" horiz-adv-x="582" 
d="M54 37v125l117 102l-117 102v125l255 -227zM309 162l116 102l-116 102v125l255 -227l-255 -227v125z" />
    <glyph glyph-name="onequarter" unicode="&#xbc;" horiz-adv-x="859" 
d="M668 695l-444 -695h-101l443 695h102zM120 271v312l-89 -49v106l89 50h103v-419h-103zM830 57h-30v-57h-103v57h-195v89l134 273h105l-134 -273h90v88h103v-88h30v-89z" />
    <glyph glyph-name="onehalf" unicode="&#xbd;" horiz-adv-x="882" 
d="M566 695h102l-444 -695h-101zM120 583l-89 -49v106l89 50h103v-419h-103v312zM542 80l154 155c12.667 11.333 21.667 21.5 27 30.5s8 18.167 8 27.5v6c0 27.333 -15.667 41 -47 41c-15.333 0 -27 -3.5 -35 -10.5s-12 -16.833 -12 -29.5v-6h-99v9c0 38 13 68 39 90
s62.667 33 110 33c46 0 82.333 -11.333 109 -34s40 -52 40 -88v-8c0 -24 -5.16699 -45 -15.5 -63c-10.3369 -18 -28.1699 -38.333 -53.5 -61l-80 -83h149v-89h-294v80z" />
    <glyph glyph-name="threequarters" unicode="&#xbe;" horiz-adv-x="952" 
d="M299 298.5c-27.333 -23 -63.332 -34.5 -107.999 -34.5c-48.667 0 -85.5 10.167 -110.5 30.5c-25 20.334 -37.5 50.167 -37.5 89.5v8h93v-6c0 -25.333 17.667 -38 53 -38c16.667 0 29.334 3.66699 38 11c8.66699 7.33496 13 17.668 13 31v7c0 30.667 -20 46 -60 46h-24v85
h23c36 0 54 13 54 39v7c0 26 -15.667 39 -47 39c-32.667 0 -49 -12.333 -49 -37v-7h-92v6c0 40 12.5 70.333 37.5 91s60.833 31 107.5 31c44 0 78.667 -10.333 104 -31s38 -48.667 38 -84v-7c0 -17.333 -4.83301 -33.333 -14.5 -48
c-9.66797 -14.667 -23.835 -25.667 -42.501 -33c20.667 -5.33301 36.667 -16.5 48 -33.5s17 -37.5 17 -61.5v-8c0 -38.667 -13.667 -69.5 -41 -92.5zM761.001 695l-444 -695h-101l443 695h102zM923.001 57h-30v-57h-103v57h-195v89l134 273h105l-134 -273h90v88h103v-88h30
v-89z" />
    <glyph glyph-name="questiondown" unicode="&#xbf;" 
d="M193 520h131v-128h-131v128zM93 -118.5c-39.333 31.667 -59 75.168 -59 130.501c0 27.333 5 53.166 15 77.499s27.667 48.166 53 71.499l50 47c18 16.667 30 31.834 36 45.5c6 13.667 9 31.834 9 54.501v17h124v-32c0 -33.333 -4 -59.5 -12 -78.5
s-24.333 -39.833 -49 -62.5l-48 -45c-18.667 -16.667 -31.667 -31.5 -39 -44.5s-11 -27.167 -11 -42.5c0 -24 8.16699 -42.333 24.5 -55s40.166 -19 71.499 -19c32 0 55.5 6.66699 70.5 20s22.833 33.333 23.5 60h121c-2.66699 -128 -75 -192 -217 -192
c-69.333 0 -123.666 15.833 -162.999 47.5z" />
    <glyph glyph-name="Agrave" unicode="&#xc0;" horiz-adv-x="681" 
d="M487 134h-293l-50 -134h-140l283 690h107l283 -690h-140zM446 243l-106 281l-105 -281h211zM160 891h149l120 -133h-112z" />
    <glyph glyph-name="Aacute" unicode="&#xc1;" horiz-adv-x="681" 
d="M487 134h-293l-50 -134h-140l283 690h107l283 -690h-140zM446 243l-106 281l-105 -281h211zM338 891h149l-157 -133h-112z" />
    <glyph glyph-name="Acircumflex" unicode="&#xc2;" horiz-adv-x="681" 
d="M487 134h-293l-50 -134h-140l283 690h107l283 -690h-140zM446 243l-106 281l-105 -281h211zM295 898h91l135 -151h-104l-76 80l-77 -80h-104z" />
    <glyph glyph-name="Atilde" unicode="&#xc3;" horiz-adv-x="681" 
d="M487 134h-293l-50 -134h-140l283 690h107l283 -690h-140zM446 243l-106 281l-105 -281h211zM181 843c16 15.333 30.834 26.166 44.501 32.499s29.5 9.5 47.5 9.5c14.667 0 27.667 -1.66699 39 -5s24.333 -8.33301 39 -15c13.335 -6 24.668 -10.5 34 -13.5
c9.33398 -3 19.667 -4.5 31 -4.5c14 0 26.667 2.83301 38 8.5c11.334 5.66699 26.667 16.167 45.999 31.5v-92c-16 -15.3389 -30.833 -26.1719 -44.5 -32.499c-13.667 -6.33301 -29.167 -9.5 -46.5 -9.5c-14.667 0 -27.667 1.83301 -39 5.5
c-11.333 3.67871 -24.666 8.8457 -39.999 15.501c-2 0.69043 -7.33301 2.85742 -16 6.5c-8.66797 3.69043 -16.835 6.35742 -24.501 8c-7.66699 1.66699 -15.167 2.5 -22.5 2.5c-14 0 -27 -2.83301 -39 -8.5s-27.667 -15.834 -47 -30.501v91z" />
    <glyph glyph-name="Adieresis" unicode="&#xc4;" horiz-adv-x="681" 
d="M487 134h-293l-50 -134h-140l283 690h107l283 -690h-140zM446 243l-106 281l-105 -281h211zM172 873h107v-116h-107v116zM402 873h107v-116h-107v116z" />
    <glyph glyph-name="Aring" unicode="&#xc5;" horiz-adv-x="681" 
d="M487 134l-293 0.00292969l-50 -134h-140l283 689c-15.333 9.33301 -27.333 21.666 -36 36.999s-13 32.666 -13 51.999c0 30 9.83301 54.833 29.5 74.5s44.167 29.5 73.5 29.5s53.833 -9.83301 73.5 -29.5s29.5 -44.5 29.5 -74.5c0 -19.333 -4.5 -36.833 -13.5 -52.5
s-21.167 -27.834 -36.5 -36.501l283 -689h-140zM308 813.003c-8.66699 -9.33301 -13 -21 -13 -35c0 -13.3359 4.5 -24.6689 13.5 -33.999c9 -9.33301 19.833 -14 32.5 -14c13.333 0 24.5 4.66699 33.5 14s13.5 20.666 13.5 33.999c0 14 -4.5 25.667 -13.5 35
s-20.167 14 -33.5 14s-24.333 -4.66699 -33 -14zM446 243.003l-106 281l-105 -281h211z" />
    <glyph glyph-name="AE" unicode="&#xc6;" horiz-adv-x="995" 
d="M603 576v-171h306v-114h-306v-177h357v-114h-489v141h-243l-78 -141h-146l399 690h557v-114h-357zM471 250v330l-183 -330h183z" />
    <glyph glyph-name="Ccedilla" unicode="&#xc7;" horiz-adv-x="673" 
d="M497 459l0.000976562 4c0 38.667 -13 69.167 -39 91.5s-62 33.5 -108 33.5c-54.667 0 -95.5 -16 -122.5 -48s-40.5 -81 -40.5 -147v-99c0 -63.333 13.667 -110.333 41 -141s68.333 -46 123 -46c46 0 81.833 10.833 107.5 32.5s38.5 51.5 38.5 89.5v5h130v-5
c0 -65.333 -18.833 -118.333 -56.5 -159s-89.5 -66 -155.5 -76l-61 -150h-119l75 147c-80.667 6.66699 -143.334 35.167 -188.001 85.5s-67 122.166 -67 215.499v108c0 100.667 26 176.334 78 227.001s124.333 76 217 76c84.667 0 152.167 -20.833 202.5 -62.5
s75.5 -99.5 75.5 -173.5v-8h-131z" />
    <glyph glyph-name="Egrave" unicode="&#xc8;" horiz-adv-x="587" 
d="M190 576v-171h311v-114h-311v-177h362v-114h-493v690h493v-114h-362zM120 891h149l120 -133h-112z" />
    <glyph glyph-name="Eacute" unicode="&#xc9;" horiz-adv-x="587" 
d="M190 576v-171h311v-114h-311v-177h362v-114h-493v690h493v-114h-362zM336 891h149l-157 -133h-112z" />
    <glyph glyph-name="Ecircumflex" unicode="&#xca;" horiz-adv-x="587" 
d="M190 576v-171h311v-114h-311v-177h362v-114h-493v690h493v-114h-362zM255 898h91l135 -151h-104l-76 80l-77 -80h-104z" />
    <glyph glyph-name="Edieresis" unicode="&#xcb;" horiz-adv-x="587" 
d="M190 576v-171h311v-114h-311v-177h362v-114h-493v690h493v-114h-362zM132 873h107v-116h-107v116zM362 873h107v-116h-107v116z" />
    <glyph glyph-name="Igrave" unicode="&#xcc;" horiz-adv-x="261" 
d="M65 690h131v-690h-131v690zM-51 891h149l120 -133h-112z" />
    <glyph glyph-name="Iacute" unicode="&#xcd;" horiz-adv-x="261" 
d="M65 690h131v-690h-131v690zM165 891h149l-157 -133h-112z" />
    <glyph glyph-name="Icircumflex" unicode="&#xce;" horiz-adv-x="261" 
d="M65 690h131v-690h-131v690zM84 898h91l135 -151h-104l-76 80l-77 -80h-104z" />
    <glyph glyph-name="Idieresis" unicode="&#xcf;" horiz-adv-x="261" 
d="M65 690h131v-690h-131v690zM-39 873h107v-116h-107v116zM191 873h107v-116h-107v116z" />
    <glyph glyph-name="Eth" unicode="&#xd0;" horiz-adv-x="694" 
d="M573.5 616c50.333 -49.333 75.499 -125.332 75.499 -227.999v-85c0 -102.667 -25.667 -178.834 -77 -228.501s-123.666 -74.5 -216.999 -74.5h-264v294h-64v115h64v281h269c92 0 163.167 -24.667 213.5 -74zM517.999 381.001c0 68 -13 117.501 -39 148.501
s-66 46.5 -120 46.5h-137v-167h157v-115h-157v-180h137c54 0 94 15.167 120 45.5s39 78.166 39 143.499v78z" />
    <glyph glyph-name="Ntilde" unicode="&#xd1;" horiz-adv-x="699" 
d="M640 690v-690h-131l-319 457v-457h-131v690h131l319 -458v458h131zM190 843c16 15.333 30.833 26.166 44.5 32.499s29.5 9.5 47.5 9.5c14.667 0 27.667 -1.66699 39 -5s24.333 -8.33301 39 -15c13.335 -6 24.668 -10.5 34 -13.5c9.33398 -3 19.667 -4.5 31 -4.5
c14 0 26.667 2.83301 38 8.5c11.334 5.66699 26.667 16.167 45.999 31.5v-92c-16 -15.3389 -30.833 -26.1719 -44.5 -32.499c-13.667 -6.33301 -29.167 -9.5 -46.5 -9.5c-14.667 0 -27.667 1.83301 -39 5.5c-11.333 3.67871 -24.666 8.8457 -39.999 15.501
c-2 0.69043 -7.33301 2.85742 -16 6.5c-8.66797 3.69043 -16.835 6.35742 -24.5 8c-7.66699 1.66699 -15.167 2.5 -22.5 2.5c-14 0 -27 -2.83301 -39 -8.5s-27.667 -15.834 -47 -30.501v91z" />
    <glyph glyph-name="Ograve" unicode="&#xd2;" horiz-adv-x="673" 
d="M130 65c-50 50.667 -75.001 126.333 -75.001 227v108c0 100.667 25.5 176.334 76.5 227.001s121.5 76 211.5 76c88.667 0 158.334 -25.333 209.001 -76s76 -126.334 76 -227.001v-108c0 -100 -25.833 -175.5 -77.5 -226.5s-122.167 -76.5 -211.5 -76.5
s-159 25.333 -209 76zM496.999 293.999v99c0 130 -51.333 195 -154 195c-52.667 0 -91.834 -16 -117.501 -48s-38.5 -81 -38.5 -147v-99c0 -63.333 12.833 -110.333 38.5 -141s64.834 -46 117.501 -46c102.667 0 154 62.333 154 187zM160.999 890.999h149l120 -133h-112z
" />
    <glyph glyph-name="Oacute" unicode="&#xd3;" horiz-adv-x="673" 
d="M130 65c-50 50.667 -75.001 126.333 -75.001 227v108c0 100.667 25.5 176.334 76.5 227.001s121.5 76 211.5 76c88.667 0 158.334 -25.333 209.001 -76s76 -126.334 76 -227.001v-108c0 -100 -25.833 -175.5 -77.5 -226.5s-122.167 -76.5 -211.5 -76.5
s-159 25.333 -209 76zM496.999 293.999v99c0 130 -51.333 195 -154 195c-52.667 0 -91.834 -16 -117.501 -48s-38.5 -81 -38.5 -147v-99c0 -63.333 12.833 -110.333 38.5 -141s64.834 -46 117.501 -46c102.667 0 154 62.333 154 187zM334.999 890.999h149l-157 -133h-112z
" />
    <glyph glyph-name="Ocircumflex" unicode="&#xd4;" horiz-adv-x="673" 
d="M130 65c-50 50.667 -75.001 126.333 -75.001 227v108c0 100.667 25.5 176.334 76.5 227.001s121.5 76 211.5 76c88.667 0 158.334 -25.333 209.001 -76s76 -126.334 76 -227.001v-108c0 -100 -25.833 -175.5 -77.5 -226.5s-122.167 -76.5 -211.5 -76.5
s-159 25.333 -209 76zM496.999 293.999v99c0 130 -51.333 195 -154 195c-52.667 0 -91.834 -16 -117.501 -48s-38.5 -81 -38.5 -147v-99c0 -63.333 12.833 -110.333 38.5 -141s64.834 -46 117.501 -46c102.667 0 154 62.333 154 187zM295.999 897.999h91l135 -151h-104
l-76 80l-77 -80h-104z" />
    <glyph glyph-name="Otilde" unicode="&#xd5;" horiz-adv-x="673" 
d="M130 65c-50 50.667 -75.001 126.333 -75.001 227v108c0 100.667 25.5 176.334 76.5 227.001s121.5 76 211.5 76c88.667 0 158.334 -25.333 209.001 -76s76 -126.334 76 -227.001v-108c0 -100 -25.833 -175.5 -77.5 -226.5s-122.167 -76.5 -211.5 -76.5
s-159 25.333 -209 76zM496.999 293.999v99c0 130 -51.333 195 -154 195c-52.667 0 -91.834 -16 -117.501 -48s-38.5 -81 -38.5 -147v-99c0 -63.333 12.833 -110.333 38.5 -141s64.834 -46 117.501 -46c102.667 0 154 62.333 154 187zM181.999 842.999
c16 15.333 30.833 26.166 44.5 32.499s29.5 9.5 47.5 9.5c14.667 0 27.667 -1.66699 39 -5s24.333 -8.33301 39 -15c13.335 -6 24.668 -10.5 34 -13.5c9.33398 -3 19.667 -4.5 31 -4.5c14 0 26.667 2.83301 38 8.5c11.334 5.66699 26.667 16.167 45.999 31.5v-92
c-16 -15.3389 -30.833 -26.1719 -44.5 -32.499c-13.667 -6.33301 -29.167 -9.5 -46.5 -9.5c-14.667 0 -27.667 1.83301 -39 5.5c-11.333 3.67871 -24.666 8.8457 -39.999 15.501c-2 0.69043 -7.33301 2.85742 -16 6.5c-8.66797 3.69043 -16.835 6.35742 -24.5 8
c-7.66699 1.66699 -15.167 2.5 -22.5 2.5c-14 0 -27 -2.83301 -39 -8.5s-27.667 -15.834 -47 -30.501v91z" />
    <glyph glyph-name="Odieresis" unicode="&#xd6;" horiz-adv-x="673" 
d="M130 65c-50 50.667 -75.001 126.333 -75.001 227v108c0 100.667 25.5 176.334 76.5 227.001s121.5 76 211.5 76c88.667 0 158.334 -25.333 209.001 -76s76 -126.334 76 -227.001v-108c0 -100 -25.833 -175.5 -77.5 -226.5s-122.167 -76.5 -211.5 -76.5
s-159 25.333 -209 76zM496.999 293.999v99c0 130 -51.333 195 -154 195c-52.667 0 -91.834 -16 -117.501 -48s-38.5 -81 -38.5 -147v-99c0 -63.333 12.833 -110.333 38.5 -141s64.834 -46 117.501 -46c102.667 0 154 62.333 154 187zM172.999 872.999h107v-116h-107v116z
M402.999 872.999h107v-116h-107v116z" />
    <glyph glyph-name="multiply" unicode="&#xd7;" horiz-adv-x="529" 
d="M69 157l119 119l-119 120l76 76l120 -119l119 119l76 -77l-119 -119l119 -119l-76 -77l-119 120l-120 -120z" />
    <glyph glyph-name="Oslash" unicode="&#xd8;" horiz-adv-x="673" 
d="M629 400l-0.000976562 -108.001c0 -100 -25.833 -175.5 -77.5 -226.5s-122.167 -76.5 -211.5 -76.5c-67.333 0 -123.333 14.333 -168 43l-35 -52h-82l65 98c-42.667 52 -64 123.333 -64 214v108c0 100.667 25.5 176.334 76.5 227.001s121.5 76 211.5 76
c64.667 0 119.334 -13.333 164.001 -40l35 52h80l-63 -95c46 -52 69 -125.333 69 -220zM200.999 199.999l239.001 358.999c-24 19.333 -56 29 -96 29c-52.667 0 -91.834 -16 -117.501 -48s-38.5 -81 -38.5 -147v-99c0 -37.333 4.33301 -68.666 13 -93.999zM498 392.998
c0 42 -5.66699 78 -17 108l-239 -363c24.667 -20.667 58.667 -31 102 -31c102.667 0 154 62.333 154 187v99z" />
    <glyph glyph-name="Ugrave" unicode="&#xd9;" horiz-adv-x="676" 
d="M191 25c-42 20.667 -74.499 50.167 -97.499 88.5s-34.5 83.166 -34.5 134.499v442h131v-438c0 -46.667 12.667 -82.334 38 -107.001s61.666 -37 108.999 -37s84 12.333 110 37s39 60.334 39 107.001v438h131v-442c0 -51.333 -11.5 -96.166 -34.5 -134.499
s-55.667 -67.833 -98 -88.5s-91.5 -31 -147.5 -31c-55.333 0 -104 10.333 -146 31zM157.001 891h149l120 -133h-112z" />
    <glyph glyph-name="Uacute" unicode="&#xda;" horiz-adv-x="676" 
d="M191 25c-42 20.667 -74.499 50.167 -97.499 88.5s-34.5 83.166 -34.5 134.499v442h131v-438c0 -46.667 12.667 -82.334 38 -107.001s61.666 -37 108.999 -37s84 12.333 110 37s39 60.334 39 107.001v438h131v-442c0 -51.333 -11.5 -96.166 -34.5 -134.499
s-55.667 -67.833 -98 -88.5s-91.5 -31 -147.5 -31c-55.333 0 -104 10.333 -146 31zM373.001 891h149l-157 -133h-112z" />
    <glyph glyph-name="Ucircumflex" unicode="&#xdb;" horiz-adv-x="676" 
d="M191 25c-42 20.667 -74.499 50.167 -97.499 88.5s-34.5 83.166 -34.5 134.499v442h131v-438c0 -46.667 12.667 -82.334 38 -107.001s61.666 -37 108.999 -37s84 12.333 110 37s39 60.334 39 107.001v438h131v-442c0 -51.333 -11.5 -96.166 -34.5 -134.499
s-55.667 -67.833 -98 -88.5s-91.5 -31 -147.5 -31c-55.333 0 -104 10.333 -146 31zM292.001 898h91l135 -151h-104l-76 80l-77 -80h-104z" />
    <glyph glyph-name="Udieresis" unicode="&#xdc;" horiz-adv-x="676" 
d="M191 25c-42 20.667 -74.499 50.167 -97.499 88.5s-34.5 83.166 -34.5 134.499v442h131v-438c0 -46.667 12.667 -82.334 38 -107.001s61.666 -37 108.999 -37s84 12.333 110 37s39 60.334 39 107.001v438h131v-442c0 -51.333 -11.5 -96.166 -34.5 -134.499
s-55.667 -67.833 -98 -88.5s-91.5 -31 -147.5 -31c-55.333 0 -104 10.333 -146 31zM169.001 873h107v-116h-107v116zM399.001 873h107v-116h-107v116z" />
    <glyph glyph-name="Yacute" unicode="&#xdd;" horiz-adv-x="608" 
d="M370 285v-285h-131v284l-235 406h148l152 -289l152 289h148zM339 891h149l-157 -133h-112z" />
    <glyph glyph-name="Thorn" unicode="&#xde;" horiz-adv-x="628" 
d="M538.5 520.5c43.667 -37 65.5 -90.5 65.5 -160.5c0 -66.667 -21.833 -118.5 -65.5 -155.5s-105.834 -55.5 -186.5 -55.5h-162v-149h-131v690h131v-114h167c77.333 0 137.833 -18.5 181.5 -55.5zM473 361c0 34 -9.66797 59.333 -29.001 76s-46.666 25 -81.999 25h-172
v-199h172c74 0 111 32.667 111 98z" />
    <glyph glyph-name="germandbls" unicode="&#xdf;" horiz-adv-x="577" 
d="M279 100l36 0.000976562c26 0 45.667 4.16699 59 12.5s22.5 21.666 27.5 39.999s7.5 44.166 7.5 77.499s-2.83301 59.333 -8.5 78s-16 32.334 -31 41.001s-36.5 13 -64.5 13h-26v103h35c56.667 0 85 21 85 63c0 22.6689 -8.66699 39.3359 -26 50.001
c-17.333 10.667 -44 16 -80 16c-40.667 0 -70 -7.33301 -88 -22s-27 -39 -27 -73v-499h-124v488c0 71.333 19.167 124.5 57.5 159.5s98.5 52.5 180.5 52.5c74 0 130.833 -14.167 170.5 -42.5c39.667 -28.334 59.5 -69.167 59.5 -122.5c0 -28 -5.5 -51.5 -16.5 -70.5
s-28.5 -34.5 -52.5 -46.5c30 -14.667 50.667 -36 62 -64s17 -69.333 17 -124c0 -57.333 -6.5 -102.833 -19.5 -136.5s-34.333 -58.334 -64 -74.001s-70.834 -23.5 -123.5 -23.5h-46v104z" />
    <glyph glyph-name="agrave" unicode="&#xe0;" horiz-adv-x="553" 
d="M439.5 476c39.667 -33.333 59.499 -81.334 59.499 -144.001v-332h-120v48c-20.667 -19.333 -42.667 -33.166 -66 -41.499s-51.666 -12.5 -84.999 -12.5c-62.667 0 -110.167 14 -142.5 42s-48.5 67.667 -48.5 119c0 49.333 17.167 87 51.5 113s83.833 39 148.5 39h139v31
c0 62 -36.667 93 -110 93c-33.333 0 -57.5 -6 -72.5 -18s-22.5 -27.333 -22.5 -46v-3h-118v3c0 49.334 19.5 88.167 58.5 116.5s91.5 42.5 157.5 42.5c74 0 130.833 -16.667 170.5 -50zM375.999 189.999v32h-116c-35.333 0 -61.333 -5.16699 -78 -15.5s-25 -26.5 -25 -48.5
c0 -20.667 8.16699 -36.667 24.5 -48s40.833 -17 73.5 -17c80.667 0 121 32.333 121 97zM86.999 720.999h149l120 -133h-112z" />
    <glyph glyph-name="aacute" unicode="&#xe1;" horiz-adv-x="553" 
d="M439.5 476c39.667 -33.333 59.499 -81.334 59.499 -144.001v-332h-120v48c-20.667 -19.333 -42.667 -33.166 -66 -41.499s-51.666 -12.5 -84.999 -12.5c-62.667 0 -110.167 14 -142.5 42s-48.5 67.667 -48.5 119c0 49.333 17.167 87 51.5 113s83.833 39 148.5 39h139v31
c0 62 -36.667 93 -110 93c-33.333 0 -57.5 -6 -72.5 -18s-22.5 -27.333 -22.5 -46v-3h-118v3c0 49.334 19.5 88.167 58.5 116.5s91.5 42.5 157.5 42.5c74 0 130.833 -16.667 170.5 -50zM375.999 189.999v32h-116c-35.333 0 -61.333 -5.16699 -78 -15.5s-25 -26.5 -25 -48.5
c0 -20.667 8.16699 -36.667 24.5 -48s40.833 -17 73.5 -17c80.667 0 121 32.333 121 97zM276.999 720.999h149l-157 -133h-112z" />
    <glyph glyph-name="acircumflex" unicode="&#xe2;" horiz-adv-x="553" 
d="M439.5 476c39.667 -33.333 59.499 -81.334 59.499 -144.001v-332h-120v48c-20.667 -19.333 -42.667 -33.166 -66 -41.499s-51.666 -12.5 -84.999 -12.5c-62.667 0 -110.167 14 -142.5 42s-48.5 67.667 -48.5 119c0 49.333 17.167 87 51.5 113s83.833 39 148.5 39h139v31
c0 62 -36.667 93 -110 93c-33.333 0 -57.5 -6 -72.5 -18s-22.5 -27.333 -22.5 -46v-3h-118v3c0 49.334 19.5 88.167 58.5 116.5s91.5 42.5 157.5 42.5c74 0 130.833 -16.667 170.5 -50zM375.999 189.999v32h-116c-35.333 0 -61.333 -5.16699 -78 -15.5s-25 -26.5 -25 -48.5
c0 -20.667 8.16699 -36.667 24.5 -48s40.833 -17 73.5 -17c80.667 0 121 32.333 121 97zM221.999 727.999h91l135 -151h-104l-76 80l-77 -80h-104z" />
    <glyph glyph-name="atilde" unicode="&#xe3;" horiz-adv-x="553" 
d="M439.5 476c39.667 -33.333 59.499 -81.334 59.499 -144.001v-332h-120v48c-20.667 -19.333 -42.667 -33.166 -66 -41.499s-51.666 -12.5 -84.999 -12.5c-62.667 0 -110.167 14 -142.5 42s-48.5 67.667 -48.5 119c0 49.333 17.167 87 51.5 113s83.833 39 148.5 39h139v31
c0 62 -36.667 93 -110 93c-33.333 0 -57.5 -6 -72.5 -18s-22.5 -27.333 -22.5 -46v-3h-118v3c0 49.334 19.5 88.167 58.5 116.5s91.5 42.5 157.5 42.5c74 0 130.833 -16.667 170.5 -50zM375.999 189.999v32h-116c-35.333 0 -61.333 -5.16699 -78 -15.5s-25 -26.5 -25 -48.5
c0 -20.667 8.16699 -36.667 24.5 -48s40.833 -17 73.5 -17c80.667 0 121 32.333 121 97zM107.999 672.999c16 15.333 30.833 26.167 44.5 32.5s29.5 9.5 47.5 9.5c14.667 0 27.667 -1.66699 39 -5s24.333 -8.33301 39 -15c13.334 -6 24.667 -10.5 34 -13.5
c9.33496 -3 19.668 -4.5 31 -4.5c14 0 26.667 2.83301 38 8.5c11.334 5.66699 26.667 16.167 46 31.5v-92c-16 -15.3379 -30.833 -26.1709 -44.5 -32.5c-13.667 -6.33301 -29.167 -9.5 -46.5 -9.5c-14.667 0 -27.667 1.83301 -39 5.5
c-11.333 3.67578 -24.666 8.84277 -39.999 15.5c-2 0.685547 -7.33301 2.85254 -16 6.50098c-8.66699 3.68555 -16.834 6.35254 -24.501 8c-7.66699 1.66699 -15.167 2.5 -22.5 2.5c-14 0 -27 -2.83301 -39 -8.5s-27.667 -15.834 -47 -30.501v91z" />
    <glyph glyph-name="adieresis" unicode="&#xe4;" horiz-adv-x="553" 
d="M439.5 476c39.667 -33.333 59.499 -81.334 59.499 -144.001v-332h-120v48c-20.667 -19.333 -42.667 -33.166 -66 -41.499s-51.666 -12.5 -84.999 -12.5c-62.667 0 -110.167 14 -142.5 42s-48.5 67.667 -48.5 119c0 49.333 17.167 87 51.5 113s83.833 39 148.5 39h139v31
c0 62 -36.667 93 -110 93c-33.333 0 -57.5 -6 -72.5 -18s-22.5 -27.333 -22.5 -46v-3h-118v3c0 49.334 19.5 88.167 58.5 116.5s91.5 42.5 157.5 42.5c74 0 130.833 -16.667 170.5 -50zM375.999 189.999v32h-116c-35.333 0 -61.333 -5.16699 -78 -15.5s-25 -26.5 -25 -48.5
c0 -20.667 8.16699 -36.667 24.5 -48s40.833 -17 73.5 -17c80.667 0 121 32.333 121 97zM98.999 702.999h107v-116h-107v116zM328.999 702.999h107v-116h-107v116z" />
    <glyph glyph-name="aring" unicode="&#xe5;" horiz-adv-x="553" 
d="M439.5 476c39.667 -33.333 59.499 -81.334 59.499 -144.001v-332h-120v48c-20.667 -19.333 -42.667 -33.166 -66 -41.499s-51.666 -12.5 -84.999 -12.5c-62.667 0 -110.167 14 -142.5 42s-48.5 67.667 -48.5 119c0 49.333 17.167 87 51.5 113s83.833 39 148.5 39h139v31
c0 62 -36.667 93 -110 93c-33.333 0 -57.5 -6 -72.5 -18s-22.5 -27.333 -22.5 -46v-3h-118v3c0 49.334 19.5 88.167 58.5 116.5s91.5 42.5 157.5 42.5c74 0 130.833 -16.667 170.5 -50zM375.999 189.999v32h-116c-35.333 0 -61.333 -5.16699 -78 -15.5s-25 -26.5 -25 -48.5
c0 -20.667 8.16699 -36.667 24.5 -48s40.833 -17 73.5 -17c80.667 0 121 32.333 121 97zM194.499 595.499c-19.667 19.667 -29.5 44.167 -29.5 73.5c0 30 9.83301 54.833 29.5 74.5s44.167 29.5 73.5 29.5s53.833 -9.83301 73.5 -29.5s29.5 -44.5 29.5 -74.5
c0 -29.333 -9.83301 -53.833 -29.5 -73.5s-44.167 -29.5 -73.5 -29.5s-53.833 9.83301 -73.5 29.5zM301.499 634.999c9 9.33301 13.5 20.666 13.5 33.999c0 14 -4.5 25.667 -13.5 35s-20.167 14 -33.5 14s-24.333 -4.66699 -33 -14s-13 -21 -13 -35
c0 -13.3379 4.5 -24.6709 13.5 -33.999c9 -9.33301 19.833 -14 32.5 -14c13.333 0 24.5 4.66699 33.5 14z" />
    <glyph glyph-name="ae" unicode="&#xe6;" horiz-adv-x="900" 
d="M855 224l-356 -0.00195312c0 -83.333 42.333 -125 127 -125c29.333 0 53 5.33301 71 16s28.667 25.667 32 45l1 3h121l-1 -6c-2 -31.333 -12.167 -59.666 -30.5 -84.999s-44 -45.166 -77 -59.499s-71.833 -21.5 -116.5 -21.5c-80 0 -142.667 23.667 -188 71
c-44 -47.333 -108 -71 -192 -71c-66.667 0 -118.167 14.833 -154.5 44.5s-54.5 70.167 -54.5 121.5c0 50 17.167 87.833 51.5 113.5s83.833 38.5 148.5 38.5h139v29c0 62 -36.667 93 -110 93c-33.333 0 -57.5 -6 -72.5 -18s-22.5 -27.333 -22.5 -46v-3h-118v3
c0 49.334 19.5 88.167 58.5 116.5s91.5 42.5 157.5 42.5c77.333 0 136 -19 176 -57c43.333 40 100.333 60 171 60c74 0 132.333 -21.167 175 -63.5s64 -102.833 64 -181.5v-60zM732 316.998c0 34.667 -10.5 61 -31.5 79s-49.167 27 -84.5 27c-74 0 -113 -38 -117 -114h233v8
zM346 118.498c20 17 30 41.833 30 74.5v31h-116c-35.333 0 -61.333 -5 -78 -15s-25 -26 -25 -48c0 -45.333 32.667 -68 98 -68c40.667 0 71 8.5 91 25.5z" />
    <glyph glyph-name="ccedilla" unicode="&#xe7;" horiz-adv-x="559" 
d="M393 331v4c0 26 -9.5 46.5 -28.5 61.5s-45.167 22.5 -78.5 22.5c-38.667 0 -67.834 -10.333 -87.501 -31s-29.5 -53.334 -29.5 -98v-59c0 -45.333 10 -78.166 30 -98.499s50 -30.5 90 -30.5c32 0 57.167 7.16699 75.5 21.5s27.5 33.833 27.5 58.5v4h121v-4
c0 -48.667 -13.833 -89 -41.5 -121s-66.5 -53 -116.5 -63l-63 -154h-119l76 149c-64 5.33301 -113.833 28.166 -149.5 68.499s-53.5 96.5 -53.5 168.5v62c0 77.334 21 136.167 63 176.5s100 60.5 174 60.5c72.667 0 129.334 -17 170.001 -51s61 -81 61 -141v-6h-121z" />
    <glyph glyph-name="egrave" unicode="&#xe8;" horiz-adv-x="571" 
d="M169 226l-0.000976562 -2c0 -83.333 42.667 -125 128 -125c28.667 0 52.167 5.33301 70.5 16s28.833 25.667 31.5 45l1 3h121v-6c-3.33398 -50 -25.501 -90.167 -66.5 -120.5c-41 -30.333 -95.167 -45.5 -162.5 -45.5c-76.667 0 -136.834 21 -180.501 63
s-65.5 103.333 -65.5 184v45c0 79.334 21.333 140.167 64 182.5s101.334 63.5 176.001 63.5s133.334 -21 176.001 -63s64 -102 64 -180v-60h-357zM168.999 311l233 -0.000976562v7c0 34.667 -10.5 60.834 -31.5 78.501s-49.167 26.5 -84.5 26.5
c-73.333 0 -112.333 -37.333 -117 -112zM103.999 720.999h149l120 -133h-112z" />
    <glyph glyph-name="eacute" unicode="&#xe9;" horiz-adv-x="571" 
d="M169 226l-0.000976562 -2c0 -83.333 42.667 -125 128 -125c28.667 0 52.167 5.33301 70.5 16s28.833 25.667 31.5 45l1 3h121v-6c-3.33398 -50 -25.501 -90.167 -66.5 -120.5c-41 -30.333 -95.167 -45.5 -162.5 -45.5c-76.667 0 -136.834 21 -180.501 63
s-65.5 103.333 -65.5 184v45c0 79.334 21.333 140.167 64 182.5s101.334 63.5 176.001 63.5s133.334 -21 176.001 -63s64 -102 64 -180v-60h-357zM168.999 311l233 -0.000976562v7c0 34.667 -10.5 60.834 -31.5 78.501s-49.167 26.5 -84.5 26.5
c-73.333 0 -112.333 -37.333 -117 -112zM292.999 720.999h149l-157 -133h-112z" />
    <glyph glyph-name="ecircumflex" unicode="&#xea;" horiz-adv-x="571" 
d="M169 226l-0.000976562 -2c0 -83.333 42.667 -125 128 -125c28.667 0 52.167 5.33301 70.5 16s28.833 25.667 31.5 45l1 3h121v-6c-3.33398 -50 -25.501 -90.167 -66.5 -120.5c-41 -30.333 -95.167 -45.5 -162.5 -45.5c-76.667 0 -136.834 21 -180.501 63
s-65.5 103.333 -65.5 184v45c0 79.334 21.333 140.167 64 182.5s101.334 63.5 176.001 63.5s133.334 -21 176.001 -63s64 -102 64 -180v-60h-357zM168.999 311l233 -0.000976562v7c0 34.667 -10.5 60.834 -31.5 78.501s-49.167 26.5 -84.5 26.5
c-73.333 0 -112.333 -37.333 -117 -112zM238.999 727.999h91l135 -151h-104l-76 80l-77 -80h-104z" />
    <glyph glyph-name="edieresis" unicode="&#xeb;" horiz-adv-x="571" 
d="M169 226l-0.000976562 -2c0 -83.333 42.667 -125 128 -125c28.667 0 52.167 5.33301 70.5 16s28.833 25.667 31.5 45l1 3h121v-6c-3.33398 -50 -25.501 -90.167 -66.5 -120.5c-41 -30.333 -95.167 -45.5 -162.5 -45.5c-76.667 0 -136.834 21 -180.501 63
s-65.5 103.333 -65.5 184v45c0 79.334 21.333 140.167 64 182.5s101.334 63.5 176.001 63.5s133.334 -21 176.001 -63s64 -102 64 -180v-60h-357zM168.999 311l233 -0.000976562v7c0 34.667 -10.5 60.834 -31.5 78.501s-49.167 26.5 -84.5 26.5
c-73.333 0 -112.333 -37.333 -117 -112zM115.999 702.999h107v-116h-107v116zM345.999 702.999h107v-116h-107v116z" />
    <glyph glyph-name="igrave" unicode="&#xec;" horiz-adv-x="241" 
d="M59 520h123v-520h-123v520zM-61 721h149l120 -133h-112z" />
    <glyph glyph-name="iacute" unicode="&#xed;" horiz-adv-x="241" 
d="M59 520h123v-520h-123v520zM155 721h149l-157 -133h-112z" />
    <glyph glyph-name="icircumflex" unicode="&#xee;" horiz-adv-x="241" 
d="M59 520h123v-520h-123v520zM74 728h91l135 -151h-104l-76 80l-77 -80h-104z" />
    <glyph glyph-name="idieresis" unicode="&#xef;" horiz-adv-x="241" 
d="M59 520h123v-520h-123v520zM-49 703h107v-116h-107v116zM181 703h107v-116h-107v116z" />
    <glyph glyph-name="eth" unicode="&#xf0;" horiz-adv-x="562" 
d="M490 385.5c18 -42.333 27 -87.501 27 -135.501v-25c0 -73.333 -21.167 -131 -63.5 -173s-99.833 -63 -172.5 -63c-74 0 -131.667 20.333 -173 61s-62 96.667 -62 168v27c0 66 17.833 119.167 53.5 159.5s83.5 60.5 143.5 60.5c33.333 0 61 -5 83 -15l-72 89l-122 -34
l-25 79l91 25l-70 86h135l46 -56l115 31l24 -78l-82 -23l38 -46c39.333 -49.333 68 -95.166 86 -137.499zM401 245.999c0 36.667 -10.333 65.667 -31 87s-50 32 -88 32c-39.333 0 -69.333 -10.333 -90 -31s-31 -49.667 -31 -87v-25c0 -39.333 10.333 -70 31 -92
s50.667 -33 90 -33c38.667 0 68.167 11 88.5 33s30.5 52.667 30.5 92v24z" />
    <glyph glyph-name="ntilde" unicode="&#xf1;" horiz-adv-x="572" 
d="M54 520h121v-56c18.667 20 41.167 35.333 67.5 46s54.833 16 85.5 16c60 0 106.667 -17.833 140 -53.5s50 -85.167 50 -148.5v-324h-124v299c0 78 -34.333 117 -103 117c-35.333 0 -63 -10.167 -83 -30.5s-30 -50.833 -30 -91.5v-294h-124v520zM126 673
c16 15.333 30.834 26.167 44.501 32.5s29.5 9.5 47.5 9.5c14.667 0 27.667 -1.66699 39 -5s24.333 -8.33301 39 -15c13.335 -6 24.668 -10.5 34 -13.5c9.33398 -3 19.667 -4.5 31 -4.5c14 0 26.667 2.83301 38 8.5c11.334 5.66699 26.667 16.167 45.999 31.5v-92
c-16 -15.3379 -30.833 -26.1709 -44.5 -32.5c-13.667 -6.33301 -29.167 -9.5 -46.5 -9.5c-14.667 0 -27.667 1.83301 -39 5.5c-11.333 3.67578 -24.666 8.84277 -39.999 15.5c-2 0.685547 -7.33301 2.85254 -16 6.50098c-8.66699 3.68555 -16.834 6.35254 -24.501 8
c-7.66699 1.66699 -15.167 2.5 -22.5 2.5c-14 0 -27 -2.83301 -39 -8.5s-27.667 -15.834 -47 -30.501v91z" />
    <glyph glyph-name="ograve" unicode="&#xf2;" horiz-adv-x="563" 
d="M109 52c-42 40.667 -63 100 -63 178v62c0 77.334 21 136.167 63 176.5s100 60.5 174 60.5c73.333 0 130.833 -20.333 172.5 -61s62.5 -99.334 62.5 -176v-62c0 -78 -20.833 -137.333 -62.5 -178s-99.167 -61 -172.5 -61c-74 0 -132 20.333 -174 61zM395 231v59
c0 44 -9.66699 76.5 -29 97.5s-47 31.5 -83 31.5c-76 0 -114 -43 -114 -129v-59c0 -86 38 -129 114 -129c74.667 0 112 43 112 129zM102 721h149l120 -133h-112z" />
    <glyph glyph-name="oacute" unicode="&#xf3;" horiz-adv-x="563" 
d="M109 52c-42 40.667 -63 100 -63 178v62c0 77.334 21 136.167 63 176.5s100 60.5 174 60.5c73.333 0 130.833 -20.333 172.5 -61s62.5 -99.334 62.5 -176v-62c0 -78 -20.833 -137.333 -62.5 -178s-99.167 -61 -172.5 -61c-74 0 -132 20.333 -174 61zM395 231v59
c0 44 -9.66699 76.5 -29 97.5s-47 31.5 -83 31.5c-76 0 -114 -43 -114 -129v-59c0 -86 38 -129 114 -129c74.667 0 112 43 112 129zM291 721h149l-157 -133h-112z" />
    <glyph glyph-name="ocircumflex" unicode="&#xf4;" horiz-adv-x="563" 
d="M109 52c-42 40.667 -63 100 -63 178v62c0 77.334 21 136.167 63 176.5s100 60.5 174 60.5c73.333 0 130.833 -20.333 172.5 -61s62.5 -99.334 62.5 -176v-62c0 -78 -20.833 -137.333 -62.5 -178s-99.167 -61 -172.5 -61c-74 0 -132 20.333 -174 61zM395 231v59
c0 44 -9.66699 76.5 -29 97.5s-47 31.5 -83 31.5c-76 0 -114 -43 -114 -129v-59c0 -86 38 -129 114 -129c74.667 0 112 43 112 129zM237 728h91l135 -151h-104l-76 80l-77 -80h-104z" />
    <glyph glyph-name="otilde" unicode="&#xf5;" horiz-adv-x="563" 
d="M109 52c-42 40.667 -63 100 -63 178v62c0 77.334 21 136.167 63 176.5s100 60.5 174 60.5c73.333 0 130.833 -20.333 172.5 -61s62.5 -99.334 62.5 -176v-62c0 -78 -20.833 -137.333 -62.5 -178s-99.167 -61 -172.5 -61c-74 0 -132 20.333 -174 61zM395 231v59
c0 44 -9.66699 76.5 -29 97.5s-47 31.5 -83 31.5c-76 0 -114 -43 -114 -129v-59c0 -86 38 -129 114 -129c74.667 0 112 43 112 129zM123 673c16 15.333 30.833 26.167 44.5 32.5s29.5 9.5 47.5 9.5c14.667 0 27.667 -1.66699 39 -5s24.333 -8.33301 39 -15
c13.334 -6 24.667 -10.5 34 -13.5c9.33496 -3 19.668 -4.5 31 -4.5c14 0 26.667 2.83301 38 8.5c11.334 5.66699 26.667 16.167 46 31.5v-92c-16 -15.3379 -30.833 -26.1709 -44.5 -32.5c-13.667 -6.33301 -29.167 -9.5 -46.5 -9.5c-14.667 0 -27.667 1.83301 -39 5.5
c-11.333 3.67578 -24.666 8.84277 -39.999 15.5c-2 0.685547 -7.33301 2.85254 -16 6.50098c-8.66699 3.68555 -16.834 6.35254 -24.501 8c-7.66699 1.66699 -15.167 2.5 -22.5 2.5c-14 0 -27 -2.83301 -39 -8.5s-27.667 -15.834 -47 -30.501v91z" />
    <glyph glyph-name="odieresis" unicode="&#xf6;" horiz-adv-x="563" 
d="M109 52c-42 40.667 -63 100 -63 178v62c0 77.334 21 136.167 63 176.5s100 60.5 174 60.5c73.333 0 130.833 -20.333 172.5 -61s62.5 -99.334 62.5 -176v-62c0 -78 -20.833 -137.333 -62.5 -178s-99.167 -61 -172.5 -61c-74 0 -132 20.333 -174 61zM395 231v59
c0 44 -9.66699 76.5 -29 97.5s-47 31.5 -83 31.5c-76 0 -114 -43 -114 -129v-59c0 -86 38 -129 114 -129c74.667 0 112 43 112 129zM114 703h107v-116h-107v116zM344 703h107v-116h-107v116z" />
    <glyph glyph-name="divide" unicode="&#xf7;" horiz-adv-x="529" 
d="M217 395.5c-12.667 13 -18.999 28.833 -18.999 47.5s6.33301 34.5 19 47.5s28.334 19.5 47 19.5c18.667 0 34.5 -6.5 47.5 -19.5s19.5 -28.833 19.5 -47.5s-6.5 -34.5 -19.5 -47.5s-28.833 -19.5 -47.5 -19.5s-34.334 6.5 -47.001 19.5zM48.001 333h433v-114h-433v114z
M217.001 62.5c-12.667 13 -18.999 28.833 -18.999 47.5s6.33301 34.5 19 47.5s28.334 19.5 47 19.5c18.667 0 34.5 -6.5 47.5 -19.5s19.5 -28.833 19.5 -47.5s-6.33301 -34.5 -19 -47.5s-28.667 -19.5 -48 -19.5c-18.667 0 -34.334 6.5 -47.001 19.5z" />
    <glyph glyph-name="oslash" unicode="&#xf8;" horiz-adv-x="563" 
d="M460 463c38.667 -40.667 58 -97.667 58 -171v-62c0 -78 -20.833 -137.333 -62.5 -178s-99.167 -61 -172.5 -61c-52 0 -96 10 -132 30l-35 -50h-70l59 85c-39.333 40.667 -59 98.667 -59 174v62c0 77.334 21 136.167 63 176.5s100 60.5 174 60.5
c52.667 0 96.667 -10.333 132 -31l34 48h69zM180 163l168 239.001c-16 11.333 -37.667 17 -65 17c-76 0 -114 -43 -114 -129v-59c0 -26.667 3.66699 -49.334 11 -68.001zM385 355.001l-167 -238.001c18 -10 39.667 -15 65 -15c74.667 0 112 43 112 129v59
c0 24.667 -3.33301 46.334 -10 65.001z" />
    <glyph glyph-name="ugrave" unicode="&#xf9;" horiz-adv-x="572" 
d="M112.5 48.5c-39 38.333 -58.501 94.833 -58.501 169.5v302h124v-296c0 -40 8.5 -70.333 25.5 -91s44.5 -31 82.5 -31c38.667 0 66.334 10.167 83.001 30.5s25 50.833 25 91.5v296h124v-302c0 -75.333 -19.5 -132 -58.5 -170s-96.833 -57 -173.5 -57
s-134.5 19.167 -173.5 57.5zM104.999 721h149l120 -133h-112z" />
    <glyph glyph-name="uacute" unicode="&#xfa;" horiz-adv-x="572" 
d="M112.5 48.5c-39 38.333 -58.501 94.833 -58.501 169.5v302h124v-296c0 -40 8.5 -70.333 25.5 -91s44.5 -31 82.5 -31c38.667 0 66.334 10.167 83.001 30.5s25 50.833 25 91.5v296h124v-302c0 -75.333 -19.5 -132 -58.5 -170s-96.833 -57 -173.5 -57
s-134.5 19.167 -173.5 57.5zM294.999 721h149l-157 -133h-112z" />
    <glyph glyph-name="ucircumflex" unicode="&#xfb;" horiz-adv-x="572" 
d="M112.5 48.5c-39 38.333 -58.501 94.833 -58.501 169.5v302h124v-296c0 -40 8.5 -70.333 25.5 -91s44.5 -31 82.5 -31c38.667 0 66.334 10.167 83.001 30.5s25 50.833 25 91.5v296h124v-302c0 -75.333 -19.5 -132 -58.5 -170s-96.833 -57 -173.5 -57
s-134.5 19.167 -173.5 57.5zM239.999 728h91l135 -151h-104l-76 80l-77 -80h-104z" />
    <glyph glyph-name="udieresis" unicode="&#xfc;" horiz-adv-x="572" 
d="M112.5 48.5c-39 38.333 -58.501 94.833 -58.501 169.5v302h124v-296c0 -40 8.5 -70.333 25.5 -91s44.5 -31 82.5 -31c38.667 0 66.334 10.167 83.001 30.5s25 50.833 25 91.5v296h124v-302c0 -75.333 -19.5 -132 -58.5 -170s-96.833 -57 -173.5 -57
s-134.5 19.167 -173.5 57.5zM116.999 703h107v-116h-107v116zM346.999 703h107v-116h-107v116z" />
    <glyph glyph-name="yacute" unicode="&#xfd;" horiz-adv-x="540" 
d="M531 520l-221 -564.999c-14.667 -38 -36.334 -65.667 -65 -83c-28.667 -17.333 -66 -26 -112 -26h-48v111h54c24 0 41.5 3.16699 52.5 9.5s19.833 18.166 26.5 35.499l3 9l-212 509h134l135 -348l124 348h129zM307 721.001h149l-157 -133h-112z" />
    <glyph glyph-name="thorn" unicode="&#xfe;" horiz-adv-x="571" 
d="M54 690h124v-229c16.667 21.333 37.334 38 62 50c24.667 12 52.334 18 83.001 18c62 0 111.333 -20 148 -60s55 -97.667 55 -173v-65c0 -50 -8.83301 -93.167 -26.5 -129.5c-17.668 -36.333 -41.835 -63.833 -72.501 -82.5c-30.667 -18.667 -65.667 -28 -105 -28
c-62 0 -111 20.667 -147 62v-209h-121v846zM374 135.5c18.667 22.333 28 55.833 28 100.5v54c0 86 -37 129 -111 129c-35.333 0 -63 -11.167 -83 -33.5s-30 -53.5 -30 -93.5v-66c0 -38 10.333 -68.167 31 -90.5s48.667 -33.5 84 -33.5s62.333 11.167 81 33.5z" />
    <glyph glyph-name="ydieresis" unicode="&#xff;" horiz-adv-x="540" 
d="M531 520l-221 -564.999c-14.667 -38 -36.334 -65.667 -65 -83c-28.667 -17.333 -66 -26 -112 -26h-48v111h54c24 0 41.5 3.16699 52.5 9.5s19.833 18.166 26.5 35.499l3 9l-212 509h134l135 -348l124 348h129zM103 703.001h107v-116h-107v116zM333 703.001h107v-116h-107
v116z" />
    <glyph glyph-name="dotlessi" unicode="&#x131;" horiz-adv-x="241" 
d="M59 520h123v-520h-123v520z" />
    <glyph glyph-name="OE" unicode="&#x152;" horiz-adv-x="1014" 
d="M628 576l-0.000976562 -171h300v-114h-300v-177h351v-114h-477v35c-47.333 -30.667 -103.333 -46 -168 -46c-86 0 -154 25.5 -204 76.5s-75 126.5 -75 226.5v108c0 100 25.333 175.5 76 226.5s119.334 76.5 206.001 76.5c63.333 0 118.333 -15 165 -45v32h477v-114h-351z
M496.999 393c0 130 -51.333 195 -154 195c-52.667 0 -91.834 -16 -117.501 -48s-38.5 -81 -38.5 -147v-99c0 -63.333 12.833 -110.333 38.5 -141s64.834 -46 117.501 -46c102.667 0 154 62.333 154 187v99z" />
    <glyph glyph-name="oe" unicode="&#x153;" horiz-adv-x="919" 
d="M518 226l-0.000976562 -2c0 -83.333 42.667 -125 128 -125c28.667 0 52 5.33301 70 16s28.667 25.667 32 45l1 3h121l-1 -6c-3.33301 -50 -25.333 -90.167 -66 -120.5s-95 -45.5 -163 -45.5c-79.333 0 -139.666 21.667 -180.999 65c-41.333 -43.333 -100 -65 -176 -65
c-74 0 -132 20.333 -174 61s-63 100 -63 178v62c0 77.334 21 136.167 63 176.5s100 60.5 174 60.5c76 0 134.333 -21.333 175 -64c42.667 42.667 101.667 64 177 64c74 0 132.333 -21 175 -63s64 -102 64 -180v-60h-356zM517.999 311l233 -0.000976562v7
c0 34.667 -10.5 60.834 -31.5 78.501s-49.167 26.5 -84.5 26.5c-73.333 0 -112.333 -37.333 -117 -112zM394.999 289.999c0 44 -9.66699 76.5 -29 97.5s-47 31.5 -83 31.5c-76 0 -114 -43 -114 -129v-59c0 -86 38 -129 114 -129c74.667 0 112 43 112 129v59z" />
    <glyph glyph-name="Scaron" unicode="&#x160;" horiz-adv-x="608" 
d="M105 49.5c-46 37 -71.668 90.5029 -77.001 160.503h125c4.66699 -36.667 19.5 -63.167 44.5 -79.5s61.5 -24.5 109.5 -24.5c94 0 141 31 141 93c0 27.333 -9.33301 48.166 -28 62.499s-49.334 23.833 -92 28.5l-73 9c-140 17.333 -210 81.666 -210 192.999
c0 64.667 23.333 115.5 70 152.5s110.334 55.5 191.001 55.5c78 0 139 -17.667 183 -53s68.667 -86.333 74 -153h-126c-2.66797 33.333 -14.835 57.666 -36.5 72.999c-21.667 15.333 -54.167 23 -97.5 23s-76 -7.66699 -98 -23s-33 -37 -33 -65
c0 -25.333 9.66699 -45 29 -59s50.333 -23.667 93 -29l83 -11c65.333 -8.66699 115 -29.167 149 -61.5s51 -76.5 51 -132.5c0 -69.333 -24.667 -122.5 -74 -159.5s-117 -55.5 -203 -55.5c-84 0 -149 18.5 -195 55.5zM123.999 891.003h104l77 -79l76 79h104l-135 -151h-91z
" />
    <glyph glyph-name="scaron" unicode="&#x161;" horiz-adv-x="526" 
d="M96 37.5c-39.333 29 -58.999 69.833 -58.999 122.5v3h116v-2c0 -20.667 9.66699 -37 29 -49s48 -18 86 -18c35.334 0 62.167 5 80.5 15s27.5 24.667 27.5 44c0 16 -6.5 28.333 -19.5 37s-34.167 14.667 -63.5 18l-77 9c-58.667 7.33301 -101.834 22.833 -129.501 46.5
s-41.5 57.5 -41.5 101.5c0 51.333 19.333 91 58 119s91.667 42 159 42c69.334 0 123.667 -14 163 -42s59 -66.667 59 -116v-4h-115v3c0 20 -9 35.333 -27 46s-45 16 -81 16c-34 0 -59.167 -4.83301 -75.5 -14.5s-24.5 -23.5 -24.5 -41.5c0 -14.667 5.66699 -26.334 17 -35
c11.333 -8.66895 30.333 -14.3359 57 -17l83 -10c60 -6.66699 104.333 -22.5 133 -47.5s43 -59.167 43 -102.5c0 -54 -20.833 -95.333 -62.5 -124s-98.5 -43 -170.5 -43c-70.667 0 -125.667 14.5 -165 43.5zM83.001 721h104l77 -79l76 79h104l-135 -151h-91z" />
    <glyph glyph-name="Ydieresis" unicode="&#x178;" horiz-adv-x="608" 
d="M370 285v-285h-131v284l-235 406h148l152 -289l152 289h148zM135 873h107v-116h-107v116zM365 873h107v-116h-107v116z" />
    <glyph glyph-name="Zcaron" unicode="&#x17d;" horiz-adv-x="561" 
d="M534 115v-115h-504v115l344 461h-337v114h487v-114l-343 -461h353zM100 891h104l77 -79l76 79h104l-135 -151h-91z" />
    <glyph glyph-name="zcaron" unicode="&#x17e;" horiz-adv-x="501" 
d="M456 416l-268 -312h268v-104h-410v104l267 312h-267v104h410v-104zM71 721h104l77 -79l76 79h104l-135 -151h-91z" />
    <glyph glyph-name="florin" unicode="&#x192;" horiz-adv-x="469" 
d="M9 -39h44.001c26.667 0 46 5.33301 58 16s20.333 29.667 24.999 57l41 279h-95v110h111l15 95c9.33301 60.667 28.5 104.5 57.5 131.5s71.833 40.5 128.5 40.5h66v-114h-49c-26 0 -44.833 -5.16699 -56.5 -15.5s-19.5 -28.833 -23.5 -55.5l-13 -82h123v-110h-139
l-44 -294c-9.33301 -62.667 -28.5 -107.5 -57.5 -134.5s-72.833 -40.5 -131.5 -40.5h-60v117z" />
    <glyph glyph-name="circumflex" unicode="&#x2c6;" 
d="M204 728h91l135 -151h-104l-76 80l-76 -80h-105z" />
    <glyph glyph-name="caron" unicode="&#x2c7;" 
d="M70 721h104l77 -79l76 79h104l-135 -151h-91z" />
    <glyph glyph-name="dotaccent" unicode="&#x2d9;" 
d="M189 693h123v-99h-123v99z" />
    <glyph glyph-name="ring" unicode="&#x2da;" 
d="M174.5 606.5c-19.667 19.667 -29.5 44.167 -29.5 73.5c0 30 9.83301 54.833 29.5 74.5s44.167 29.5 73.5 29.5s53.833 -9.83301 73.5 -29.5s29.5 -44.5 29.5 -74.5c0 -29.333 -9.83301 -53.833 -29.5 -73.5s-44.167 -29.5 -73.5 -29.5s-53.833 9.83301 -73.5 29.5z
M281.5 646c9 9.33301 13.5 20.667 13.5 34c0 14 -4.5 25.667 -13.5 35s-20.167 14 -33.5 14s-24.333 -4.66699 -33 -14s-13 -21 -13 -35c0 -13.3389 4.5 -24.6719 13.5 -34c9 -9.33301 19.833 -14 32.5 -14c13.333 0 24.5 4.66699 33.5 14z" />
    <glyph glyph-name="tilde" unicode="&#x2dc;" 
d="M90 673c16 14.6719 31.001 25.3389 45.001 32c14 6.66699 29.667 10 47 10c15.333 0 28.666 -1.66699 39.999 -5s24.333 -8.33301 39 -15c14 -6 25.333 -10.5 34 -13.5s18.667 -4.5 30 -4.5c14 0 26.667 2.83301 38 8.5c11.334 5.66699 26.667 16.167 46 31.5v-92
c-16 -15.3379 -30.833 -26.1709 -44.5 -32.5c-13.667 -6.33301 -29.167 -9.5 -46.5 -9.5c-14.667 0 -27.667 1.66699 -39 5s-24.333 8.33301 -39 15c-14 6 -25.333 10.5 -34 13.5s-18.667 4.5 -30 4.5c-14 0 -26.667 -2.66699 -38 -8
c-11.333 -5.33789 -27.333 -15.6709 -48 -31v91z" />
    <glyph glyph-name="gravecomb" unicode="&#x300;" horiz-adv-x="0" 
d="M-181 721h149l120 -133h-112z" />
    <glyph glyph-name="acutecomb" unicode="&#x301;" horiz-adv-x="0" 
d="M35 721h149l-157 -133h-112z" />
    <glyph glyph-name="uni0302" unicode="&#x302;" horiz-adv-x="0" 
d="M-46 728h91l135 -151h-104l-76 80l-77 -80h-104z" />
    <glyph glyph-name="tildecomb" unicode="&#x303;" horiz-adv-x="0" 
d="M-160 673c16 15.333 30.8359 26.167 44.5029 32.5s29.5 9.5 47.5 9.5c14.667 0 27.667 -1.66699 39 -5s24.333 -8.33301 39 -15c13.333 -6 24.666 -10.5 33.999 -13.5s19.666 -4.5 30.999 -4.5c14 0 26.667 2.83301 38 8.5s26.666 16.167 45.999 31.5v-92
c-16 -15.3379 -30.833 -26.1709 -44.5 -32.5c-13.667 -6.33301 -29.167 -9.5 -46.5 -9.5c-14.667 0 -27.667 1.83301 -39 5.5c-11.333 3.67578 -24.666 8.84277 -39.999 15.5c-2 0.685547 -7.33301 2.85254 -16 6.50098c-8.66699 3.68555 -16.834 6.35254 -24.501 8
c-7.66699 1.66699 -15.167 2.5 -22.5 2.5c-14 0 -27 -2.83301 -39 -8.5s-27.667 -15.834 -47 -30.501v91z" />
    <glyph glyph-name="uni0308" unicode="&#x308;" horiz-adv-x="0" 
d="M-169 703h107v-116h-107v116zM61 703h107v-116h-107v116z" />
    <glyph glyph-name="uni030A" unicode="&#x30a;" horiz-adv-x="0" 
d="M-73.5 616.5c-19.667 19.667 -29.5 44.167 -29.5 73.5c0 30 9.83301 54.833 29.5 74.5s44.167 29.5 73.5 29.5s53.833 -9.83301 73.5 -29.5s29.5 -44.5 29.5 -74.5c0 -29.333 -9.83301 -53.833 -29.5 -73.5s-44.167 -29.5 -73.5 -29.5s-53.833 9.83301 -73.5 29.5z
M33.5 656c9 9.33301 13.5 20.667 13.5 34c0 14 -4.5 25.667 -13.5 35s-20.167 14 -33.5 14s-24.333 -4.66699 -33 -14s-13 -21 -13 -35c0 -13.334 4.5 -24.667 13.5 -34s19.833 -14 32.5 -14c13.333 0 24.5 4.66699 33.5 14z" />
    <glyph glyph-name="endash" unicode="&#x2013;" horiz-adv-x="469" 
d="M0 403h469v-115h-469v115z" />
    <glyph glyph-name="emdash" unicode="&#x2014;" horiz-adv-x="937" 
d="M0 403h937v-115h-937v115z" />
    <glyph glyph-name="quoteleft" unicode="&#x2018;" horiz-adv-x="193" 
d="M38 633l117 99v-299h-117v200z" />
    <glyph glyph-name="quoteright" unicode="&#x2019;" horiz-adv-x="193" 
d="M38 690h117v-200l-117 -99v299z" />
    <glyph glyph-name="quotesinglbase" unicode="&#x201a;" horiz-adv-x="193" 
d="M38 137h117v-200l-117 -99v299z" />
    <glyph glyph-name="quotedblleft" unicode="&#x201c;" horiz-adv-x="398" 
d="M38 633l117 99v-299h-117v200zM243 633l117 99v-299h-117v200z" />
    <glyph glyph-name="quotedblright" unicode="&#x201d;" horiz-adv-x="398" 
d="M38 690h117v-200l-117 -99v299zM243 690h117v-200l-117 -99v299z" />
    <glyph glyph-name="quotedblbase" unicode="&#x201e;" horiz-adv-x="397" 
d="M242 137h117v-200l-117 -99v299zM38 137h117v-200l-117 -99v299z" />
    <glyph glyph-name="dagger" unicode="&#x2020;" horiz-adv-x="600" 
d="M546 360h-179v-516h-131v516h-182v114h182v216h131v-216h179v-114z" />
    <glyph glyph-name="daggerdbl" unicode="&#x2021;" horiz-adv-x="600" 
d="M367 367v-195h179v-115h-179v-213h-131v213h-182v115h182v195h-182v115h182v208h131v-208h179v-115h-179z" />
    <glyph glyph-name="bullet" unicode="&#x2022;" horiz-adv-x="453" 
d="M122 203c-27.333 27.333 -41 62.333 -41 105s13.667 77.667 41 105s62.333 41 105 41c42 0 76.667 -13.667 104 -41s41 -62.333 41 -105s-13.667 -77.667 -41 -105s-62 -41 -104 -41c-42.667 0 -77.667 13.667 -105 41z" />
    <glyph glyph-name="ellipsis" unicode="&#x2026;" horiz-adv-x="793" 
d="M38 142h139v-142h-139v142zM616 142h139v-142h-139v142zM327 142h139v-142h-139v142z" />
    <glyph glyph-name="perthousand" unicode="&#x2030;" horiz-adv-x="1364" 
d="M46 428v112.001c0 51.333 13 90.166 39 116.499s64 39.5 114 39.5c99.333 0 149 -52 149 -156v-112c0 -109.333 -50.333 -164 -151 -164s-151 54.667 -151 164zM663 695.001h102l-444 -695h-101zM235.5 371.001c6.33301 12 9.5 32.668 9.5 62.001v94
c0 29.333 -3.33301 50.166 -10 62.499s-19 18.5 -37 18.5c-18.667 0 -31.5 -6.16699 -38.5 -18.5c-7 -12.3359 -10.5 -33.1689 -10.5 -62.5v-94c0 -29.333 3.5 -50 10.5 -62s19.833 -18 38.5 -18s31.167 6 37.5 18zM635 158.002v112c0 51.334 13 90.167 39 116.5
s64 39.5 114 39.5c99.333 0 149 -52 149 -156v-112c0 -109.333 -50.333 -164 -151 -164s-151 54.667 -151 164zM1016 158.002v112c0 51.334 13 90.167 39 116.5s64 39.5 114 39.5c99.333 0 149 -52 149 -156v-112c0 -109.333 -50.333 -164 -151 -164s-151 54.667 -151 164z
M824.5 101.002c6.33301 12 9.5 32.666 9.5 61.999v94c0 29.334 -3.33301 50.167 -10 62.5s-19 18.5 -37 18.5c-18.667 0 -31.5 -6.16699 -38.5 -18.5s-10.5 -33.166 -10.5 -62.499v-94c0 -29.333 3.5 -50 10.5 -62s19.833 -18 38.5 -18s31.167 6 37.5 18zM1205.5 101.001
c6.33301 12 9.5 32.666 9.5 61.999v94c0 29.334 -3.33301 50.167 -10 62.5s-19 18.5 -37 18.5c-18.667 0 -31.5 -6.16699 -38.5 -18.5s-10.5 -33.166 -10.5 -62.499v-94c0 -29.333 3.5 -50 10.5 -62s19.833 -18 38.5 -18s31.167 6 37.5 18z" />
    <glyph glyph-name="guilsinglleft" unicode="&#x2039;" horiz-adv-x="327" 
d="M18 264l255 227v-125l-116 -102l116 -102v-125z" />
    <glyph glyph-name="guilsinglright" unicode="&#x203a;" horiz-adv-x="336" 
d="M54 162l117 102l-117 102v125l255 -227l-255 -227v125z" />
    <glyph glyph-name="Euro" unicode="&#x20ac;" horiz-adv-x="603" 
d="M151 53c-42 42.667 -63.001 101.333 -63.001 176v12h-61v81h61v50h-61v81h61v13c0 72.667 21.167 129.834 63.5 171.5c42.333 41.667 101.5 62.5 177.5 62.5c68 0 122.167 -16 162.5 -48s62.166 -76.333 65.499 -133h-112c-5.33301 25.333 -17.166 44.166 -35.499 56.499
s-44.5 18.5 -78.5 18.5c-80.667 0 -121 -42.667 -121 -128v-13h232l-15 -81h-217v-50h209l-16 -81h-193v-12c0 -44 9.83301 -77.333 29.5 -100s50.5 -34 92.5 -34c34.667 0 61.334 6.16699 80.001 18.5s30.667 31.833 36 58.5h110
c-4.66699 -59.333 -27.5 -104.666 -68.5 -135.999s-94.833 -47 -161.5 -47c-76 0 -135 21.333 -177 64z" />
    <glyph glyph-name="trademark" unicode="&#x2122;" horiz-adv-x="893" 
d="M155 609h-125v81h341v-81h-125v-313h-91v313zM427 690h84l119 -235h4l117 235h83v-394h-84v221h-4l-84 -164h-62l-86 164h-2v-221h-85v394z" />
    <glyph glyph-name="fi" unicode="&#xfb01;" horiz-adv-x="575" 
d="M244 592c-10 -9.33594 -15 -24.6689 -15 -46v-26h112v-87h-112v-433h-123v433h-70v87h70v21c0 49.333 13 86.5 39 111.5s64.333 37.5 115 37.5h81v-84h-46c-24 0 -41 -4.66699 -51 -14zM393 693h123v-99h-123v99zM393 520h123v-520h-123v520z" />
    <glyph glyph-name="fl" unicode="&#xfb02;" horiz-adv-x="648" 
d="M244 592c-10 -9.33594 -15 -24.6689 -15 -46v-26h112v-87h-112v-433h-123v433h-70v87h70v21c0 49.333 13 86.5 39 111.5s64.333 37.5 115 37.5h81v-84h-46c-24 0 -41 -4.66699 -51 -14zM430.5 41.5c-28.333 27.667 -42.5 69.832 -42.5 126.499v522h124v-514
c0 -25.333 5.16699 -43.166 15.5 -53.499s28.833 -15.5 55.5 -15.5h47v-107h-69c-58.667 0 -102.167 13.833 -130.5 41.5z" />
    <glyph glyph-name=".null" horiz-adv-x="0" 
 />
    </font>
</defs>
</svg>
